<svg xmlns="http://www.w3.org/2000/svg" xmlns:xlink="http://www.w3.org/1999/xlink" viewBox="0 0 1222.2 668.54" font-family="sans-serif" font-size="68.85" font-weight="700">
  <defs>
    <marker id="x" fill="red" markerHeight="1" markerWidth="1" orient="auto-start-reverse" overflow="visible">
      <use xlink:href="#arrow"/>
    </marker>
    <marker id="y" fill="green" markerHeight="1" markerWidth="1" orient="auto-start-reverse" overflow="visible">
      <use xlink:href="#arrow"/>
    </marker>
    <marker id="z" fill="#00f" markerHeight="1" markerWidth="1" orient="auto-start-reverse" overflow="visible">
      <use xlink:href="#arrow"/>
    </marker>
    <path id="arrow" d="M-1.4-2.8 6.3 0l-7.7 2.8a4.26 4.26 0 0 0 0-5.6"/>
  </defs>
  <text x="285.96" y="540.7" fill="#00f">+Z</text>
  <path stroke="#00f" stroke-width="5.74" marker-end="url(#z)" d="M669.57 310.3 262.02 499.12"/>
  <text x="569.25" y="141.69" fill="green">+Y</text>
  <path stroke="green" stroke-width="5.74" marker-end="url(#y)" d="M669.57 310.3V76.42"/>
  <text x="909.06" y="401.76" fill="red">+X</text>
  <path stroke="red" stroke-width="5.74" marker-end="url(#x)" d="M669.57 310.3 990.89 434.91"/>
  <path fill="#e6e6e6" d="M507.64 298.1c-10.15 5.43-23.97-2.9-41.8-5.18-113.52-31.14-225.85-66.87-340.16-95-38.52-8.5-79.95-3.99-116.48 9.92-17.7 14.2 6.62 30.05 19.9 36.69 109.63 57.05 219.1 111.86 328.6 169.14-12.14 23.87-1.84 49.43 27 63.97 46.5 14.18 96.85-.94 143.46 14.38 193.03 58 386.82 113.98 580.24 170.64 29.73 4.6 59.2 6.3 90.8-5.62 14.31-10.29 29.25-33.85 11.84-47.86-42.2-31.92-93.22-48.9-140.06-72.92-97.54-46.96-199.53-93.35-296.2-141.91-22.68-8.76-2.28-20.94 8.93-30.42 48.37-38.37 104.86-65.42 156.9-98.6 33.69-18.47 64.21-41.93 92.79-67.49 48.83 6.91 97.58 22.33 147.24 17.87 14.4 2.06 28.77-15.46 9.76-21.46-45.18-21.31-94.52-34.94-139.4-55.51.8-41.73 1.41-85.26-11.87-125.16-8.3-18.47-29.09-4.94-33.86 8.98-17.48 29.4-31.7 60.54-45.97 91.58-41-8.38-81.46-25.75-123.83-23.36-18.2-.66-17.4 24.73-1.87 28.76a2426 2426 0 0 0 72.83 39.82c-77.56 15.66-153.58 31.3-230.57 49.48-46.94 18.07-101.57 29.13-139.37 63.06-5.6 7.9-20.73 20.37-28.85 26.2"/>
  <path fill="none" stroke="#000" stroke-linecap="round" stroke-linejoin="round" stroke-width=".7" d="m754.7 353.34-9.6 2.9-9.7 3-9.5 3.2-7.1 2.4-9.4 3.3-6.4 2.2-9.4 3.4-8.2 2.9-9.4 3.4-9.4 3.4-2.8 1-9.4 3.5-9.4 3.5-4.8 1.8-9.3 3.7-9.3 3.7-4.2 1.7-9.2 4-4.9 2.1-7 3-9 4.3-5.5 2.6-.2.1-1.2.6-3.6 1.7-8.7 4.6-1.4.7-8.9 4.6-.6.3-8.8 4.8-8.8 4.8-4.2 2.2-8.8 4.8-8.8 4.8-6.9 3.7m570.9 85.4-9-4.3-2.9-1.4-9-4.3-4.4-2.1-9-4.3-9-4.3-7.1-3.4-9-4.3-9-4.3-6.8-3.2-9-4.3-9-4.3-6.6-3.1-9-4.3-9-4.3-6.3-3-9-4.3-9-4.3-6.1-2.9-9-4.3-9-4.3-5.8-2.8-9-4.3-9-4.3-5.6-2.7-9-4.3-9-4.3-5.4-2.6-9-4.3-9-4.3-5-2.4-9-4.3-9-4.3-4.4-2.1-9-4.3-9-4.3-2.8-1.4-8.9-4.5-8.2-4.2-1.2-.6-8.2-5.7-6.5-4.6-.7-.9-5-6.9-2.6-5.4-.6-9.9.7-9.4m-34-19.2-1.8 9.8-1.1 5.8.3 10 .1 5.3 4.9 8.7 2.5 4.5 7.6 6.5 5.4 4.6m-.1.2 5-1.1 8.4-1.8 9-.5 1.4-.1 5.3 3.3m-115.9-90.8-.1-3.3-.1-3.3m-35.6 20.5 9.4-3.3 8.6-3 9.2-3.9 8.6-3.6m27.3-21.5-8.6 5.1-4.2 2.5-9 4.4-5.7 2.8-9.2 3.9-7.8 3.3m0 0-9.4 3.5-8 3m0 0-.6 3.4-.6 3.4m108.2-7-8.2 5.8-6.9 4.9-8.3 5.6-8.3 5.6-1 .7m29.3 6.1 1.6-9.9.7-4.4.8-10 .4-4.4m-32.8 22.5-1.2 9.9-.2 1.7-2.1 9.8-.4 2m0 0 8.9-4.6 9-4.6 8.9-4.6 6.4-3.4 8.9-4.6 7.1-3.7 8.8-4.7 8.8-4.7 1-.6m-254.9 161.4-10-.7-8.6-.6-10 .4-7.4.3-10 .9-6.5.6-10 .6-5 .3m21.2 3.8 6.6-2.1 3.7-4.1 2.7-5.1 2.3-7m-36.5 14.5-3.9 2.5-5.6 1.3m-8.1-.5 8.1.6h30.7l10 .3 8.6.3 10 .7 10 .7 5.6.4 9.8 2 9.8 2 7.3 1.5 9.6 2.8 9.6 2.8 2.7.8 9.6 2.9 9.6 2.9 2.8.9 9.6 2.9 9.6 2.9 4.5 1.4 9.6 2.9 9.6 2.9 7.1 2.1 9.6 2.8 9.6 2.8 9 2.6 9.6 2.8 9.6 2.8 9.7 2.9 9.6 2.8 9.6 2.8 9.6 2.8.5.1 9.6 2.8 9.6 2.8 9.6 2.8.8.2 9.6 2.8 9.6 2.8 9.6 2.8 1 .3 9.6 2.8 9.6 2.8 9.6 2.8 1.3.4 9.6 2.8 9.6 2.8 9.6 2.8 1.6.5 9.6 2.8 9.6 2.8 9.6 2.8 1.8.5 9.6 2.8 9.6 2.8 9.6 2.8 2.1.6 9.6 2.8 9.6 2.8 9.6 2.8 2.4.7 9.6 2.8 9.6 2.8 9.6 2.8 2.6.8 9.6 2.8 9.6 2.8 9.6 2.8 2.8.8 9.6 2.8 9.6 2.8 9.6 2.8 2.6.8 9.6 2.8 9.6 2.8 9.6 2.8 1.6.5 9.6 2.9 9.6 2.9 7.8 2.3 9.6 2.9 9.6 2.9 2.4.7 9.7 2.5 7.4 2 9.8 1.8 4 .7m-540.1-216 8.6-5.1 8.6-5.1.4-.2 9-4.4 3.9-1.9.7-.4 4.9-2.5m-64.7-16.4-.6 9.9 3.4 9 7.6 6.5 2.6 2.2 3.6 1.9 8.8 4.7 3.3 1.7m36-19.6-8.6-5.1-5.4-3.3-7.2-7-1.5-1.4-.9-3-1.6-5.3 1.6-9m-43.2 77.4 9.4 3.3 9.4 3.3 2.6.9 9.5 3.1 9.5 3.1 4.6 1.5 9.5 3.1 9.5 3.1 7.2 2.4 9.5 3.1 9.5 3.1 9 2.9 9.5 3.1 9.5 3.1 9.7 3.2 9.5 3.1 9.5 3.1 9.5 3.1.6.2 9.5 3.1 9.5 3.1 9.5 3.1.9.3 9.5 3.1 9.5 3.1 9.5 3.1 1.1.4 9.5 3.1 9.5 3.1 9.5 3.1 1.4.4 9.5 3.1 9.5 3.1 9.5 3.1 1.6.5 9.5 3.1 9.5 3.1 9.5 3.1 1.9.6 9.5 3.1 9.5 3.1 9.5 3.1 2.1.7 9.5 3.1 9.5 3.1 9.5 3.1 2.4.8 9.5 3.1 9.5 3.1 9.5 3.1 2.7.9 9.5 3.1 9.5 3.1 9.5 3.1 2.9.9 9.5 3.1 9.5 3.1 9.5 3.1 2.6.9 9.5 3.1 9.5 3.1 9.5 3.1 1.6.5 9.5 3.1 9.5 3.1 7.8 2.5 9.5 3.1 9.5 3.1 2.4.8 9.6 2.9 7.5 2.3 9.7 2.5 4.1 1.1 9 2 7.9-.8 9.9-1.2 1.2-.1m.5-.3-8.8-4.7-2.9-1.5-9.1-4.2-6.7-3.1m.1 0-8.2 5.3-6.1 4.8-3 3.4-.9 2.4m-152.8-445.4-8.9 4.6-4 2.1-8.9 4.6-6.5 3.4m33.3 3.7-2.1-9-2.9-9.5m-28.2 14.7 2 9.8v.2l1.5 9.8m0 .1 8.8-4.8 7.4-4 8.8-4.8 4.8-2.6M444 452.94l.3-9.9-1.2-9.9v-.3m-25.5 24.1 9.9-1.1 3.3-.4 9.8-1.9 3.4-.7m-1-20.1-9.5 3-3.4 1.1-9.6 2.7-3.5 1m0 0 1 8.4-.4 8m124.8 31.2 9.5 3.1 9.5 3.1 3 1 9.5 3 9.5 3 4.8 1.5 9.6 3 9.6 3 7.4 2.3 9.6 2.9 9.6 2.9 9.2 2.8 9.6 2.9 9.6 2.9 9.6 2.9.3.1 9.6 2.9 9.6 2.9 9.6 2.9.7.2 9.6 2.9 9.6 2.9 9.6 2.9 1 .3 9.6 2.9 9.6 2.9 9.6 2.9 1.2.4 9.6 2.9 9.6 2.9 9.6 2.9 1.5.5 9.6 2.9 9.6 2.9 9.6 2.9 1.8.5 9.6 2.9 9.6 2.9 9.6 2.9 2 .6 9.6 2.9 9.6 2.9 9.6 2.9 2.3.7 9.6 2.9 9.6 2.9 9.6 2.9 2.6.8 9.6 2.9 9.6 2.9 9.6 2.9 2.8.9 9.6 2.9 9.6 2.9 9.6 2.9 3 .9 9.6 2.9 9.6 2.9 9.6 2.9 2.8.8 9.6 2.9 9.6 2.9 9.6 2.9 1.7.5 9.6 2.9 9.6 2.9 7.9 2.4 9.6 2.9 9.6 2.9 2.5.7 9.7 2.5 7.4 1.9 9.8 1.7 4.4.8 10 1 2.8.3 10 .6 2.6.2 10 .2h3l10-.4 3.3-.1 9.9-1.2 2.2-.3m-53.4 3.6.7-.9.4-1.7v-2.1l-.4-2m-117.8-97.9 9.2 3.9 9.2 3.9 9.2 3.9.4.2 9.2 3.9 9.2 3.9 9.4 4m-24.1-34.2-9.5 3-6 1.9-9.4 3.3-6.7 2.3m55.8 23.5 9.4-3.3 5.5-2 9.5-3.1 5-1.6m.2-.1-9.1-4.1-9.1-4.1-8.5-3.8-9.1-4.1-9.1-4.1-8.7-3.9m-494.3-78.6 7.6-6.5 6-5.1 8.2-5.7 4.5-3.2 4.4-3.1m-72 7.9 9.4 3.4 9.4 3.4 2.3.8 9.3 3.6 9.3 3.6 1.6.6-6.2 7.8-1.1 1.4-2.6 7.3m654.7 120-5.1 2.4-7.7 3.5m30.5 6.2-7.1-5.4-8.4-5.4-2-1.3m-12.9 6 8.7 4.9 5.6 3.2 8.4 5.4 2.4 1.5m0 0 3.8-5.2 1.4-3.6.3-3.3-.4-2.4-3.3-3.8-6.9-5.8-8.3-5.6-2.5-1.7-8.7-5-7-4-8.9-4.6-8.9-4.6-3.2-1.6-9-4.4-9-4.4-6.3-3.1-9-4.3-9-4.3-7.3-3.5-9-4.3-9-4.3-7.5-3.6m-681.1-133.7 5.8 7.2 4.7 8.2m122-95.5-8.7 5-8.7 5-5.6 3.3-8.8 4.8-8.8 4.8-7 3.9-8.5 4.9-8.7 4.9-2.8 1.6-8.6 5.1-7.5 4.5-8.6 5.2-5.3 3.2-8.5 5.3-4 2.5-8.3 5.6-3.2 2.2-8 6.1-3 2.3m10.6 15.3 4.6-2.2 7.8-3.8 9.1-4.2 3.4-1.6 9-4.3 4.1-1.9 9-4.3 5.5-2.6m7.3 24.1-9.3 3.6-5.2 2-9.4 3.4-4 1.4-2.4-9.7-.3-1-3.6-9.3-.6-1.5-3.8-6.8-1.9-3.5-6.2-7.9-1.1-1.4-7.5-6.6-1.2-1-8.8-4.8-.7-.4m734.6 287.3 10 .1h.9l6.2-.6 1.7-1.9-1.2-2.8-5.7-4.3 9.9-1.4 2.1-.3 9.8-2 1.5-.3m-52.1 12.1 9.1.8 7.8.7m44.3-4.4-1.7-3.3m0-.1-7.3-5.8M471 422.34l-2.3-9.7-.5-2.2-3.4-9.4-1-2.9m-24.2 72.3 2.6-7.9 1.8-9.6 9.6-2.7 4.2-1.2 9.5-3.1 5.4-1.8m.1 0-.2-10v-.7l-1.4-9.9-.2-1.2 9.3-3.7 7.3-2.9 9.3-3.8 9.3-3.8 1.8-.7m-128.2 66.5 8.2 3 6.8 2m.1 0 5.9.4m0 .1-9.5-3.1-1.1-.4-8.9-4.6-.8-.4m-.1 0-3.4-.1-4.3-1.4m.1 0 7 4.5m402.2-110 7.3-6.9 2.4-2.3 8.3-5.5 8.3-5.5 8.3-5.5 1.7-1.1 8.5-5.2 8.5-5.2 8.5-5.2.5-.3 8.6-5.1 8.6-5.1 4.9-2.9 8.6-5.1 8.6-5.1 2.3-1.4 8.6-5.1 8.6-5.1 2.2-1.3 8.6-5.1 8.6-5.1 1.7-1 8.6-5.1 8.6-5.1.3-.2 8.6-5.1 6-3.6 8.6-5.2 2.2-1.4 7.8-4.8 5.9-4 5.7-4.2 6.6-5.1 7-5.6 6.6-5.3 6.2-5 5.8-4.7 5.2-4.3 4.3-3.7 3.5-3.1 2-1.9m-87.5-.1 8.8-4.9 5.9-4.1m-19.7-3.9 2.3 6 2.7 6.8m14.7-8.9-3.1-5-.6-5m-.1 0-6.7 2.5-9.1 3.7m-21.6 26.9 8.8-4.7 5.6-3 8.8-4.7 3.2-1.7 3.5 8.2 3.6 9.2 8.9-4.6.7-.3 7-3.7m-.1-.1-4.4-9-.1-.1-4.4-8.6m239 468 2.2-1.9 6.9-7.2 1.1-1.1 5.8-8.1.2-.3 2.6-5.8.1-4.3-.6-2.8-3.4-3.9m-21.6 24.2 7.6-6.5 1.4-1.2 7-7.2.4-.4 5.3 4.8 1.1 3.1m-713.4-257.6-9 4.4-9 4.4-3.8 1.9-9 4.4-8 3.9-4.6-8.9-.3-.7-1.2-2.4-6-8-2.1-2.8-7.5-6.6-2.4-2.1-8.8-4.8-2-1.1m506.9-188.4 3 5.4 2.5 5.7-9.3 3.8-3.1 1.2-9.3 3.8-5.5 2.2m43.1-17.1-2.1-5-2.8-4.8m0 .1-7 2.1-9.5 2.7m-340.1 221.8-9.2 4-9.2 4-1.8.8-9.2 4-9.2 4-2.6 1.1m8.7-63-1 9.9-1 9.9-.1.8-1.5 9.9-1.1 6.9m51.8-45.6-9.7 2.2-9.8 2.2-1.3.3-9.9 1.3-9.9 1.3-6.5.9m-4.8 37.5 9.4-3.5 9.4-3.5 4.2-1.5 9.4-3.4 9.4-3.4 2.4-.9m-.1 0 2.7-9.6 1.3-4.9 2.5-9.7 1.4-5.3m81.1-37.8 1 9.9.2 2.2-.4 10-.1 2.3-8.7 4.9-8.7 4.9-4.6 2.6-9 4.4-9 4.4-5.9 2.9m111.4-64.5-8.9 4.5-8.6 4.4-8.6 5.1-6.7 4 .2-10 .1-6.2-.6-10-.6-9.7m0 .1-6.4 7.6-6.4 7.6-3.3 3.9-7.4 6.7-7.4 6.7-1.4 1.3m291.1-103.6-7.1 2.6-5.9 2.9 3.5 9.1 2.6 8.4m0 0 6.2-3.6 6.5-4.1m0 0-2.6-7.6-3.2-7.7m-342.3 174.7 9-4.3 9-4.3 6.8-3.3 9-4.4 9-4.4 4.9-2.4-2.4 9.7-.8 3.1.4 10 .1 2.7 5.8 8.2 2.2 3.2 8.1 5.8 5.7 4.1m0-.1 9.6-2.7 7.7-2.1 9.7-2.5 4.9-1.3 1.3.8 8.6 5 3.7 2.2 2.6 1.5 9 4.3 9 4.3 1 .5m427.7 245.6-8.4 5.4-9.6 2.9h-.2l-2.2 1.9m-39.4-29.8-9 4.5-8.8 4.8-.3.1-9.2-3.9-8.5-3.6-9.3-3.6-9.3-3.6-2.5-1m107.8 16.6-8.6 5.2-.2.1-9.4 3.3-8.5-5.2-5.9-3.6-8.8-4.8-8.8-4.8-.7-.4m-151.7-406.5-.5-5.8-1.5-6.8 7.8-5.2 8.2-5.8.1-.1m-44.3 42.7-.7-6.5-1.4-7.8 8.8-4.8 1.3-.7 7.5-4.1 1.7 7.2.9 6m0 0 6.1-4 6-4.3m-482.5 180-1.2-9.9-.5-4.1-2.6-9.7-1.2-4.6m699.5 274.3-1.6-3.4-7.3-5.9-8.4-5.4-5.9-3.7-8.7-4.9-8.7-4.9-.6-.3m-597.7-275.8-8.9 4.5-8.9 4.5-8.9 4.5-5.8 2.9-9 4.4-9 4.4-9 4.4-1 .5-4.7-8.8-.2-.3-2.1-4-6.4-7.7-3.2-3.9-7.7-6.4-3.6-3-8.8-4.7-3.2-1.7m268.5-109.1-1-9.9-.1-1.4-3.2-7.8m-16.6 22.4 1.9-.2 1.9-.2 8.2-1.2 8.8-1.7m29.5-27.9-9.7 2.4-4.6 1.2-9.7 2.5-1.1.3-8.8 2.4-8.2 2.3-8.1 2.3m.2 0 3.2 7.4.5 10.1-2.3 9.7-.8 3.5-4.3 9-2.3 4.9m-24.9 17.1 1.4 2.4 1.4 2.4m18.3-24.3-6.7 7.4-2.9 3.2-7.9 6.1-3.6 2.8-4.7-8.8-1.1-2.1-4.9-8.7-1.2-2m14.6 26.4 7.8-6.3 4.5-3.7 6.4-7.7 3.5-4.2m19.3 9.6-8.8-4.7-1.9-1-8.7-3.9-1.9-1.2-1.9-1.2m505.2 347.9-1.4-.6-3.1 1.1-4.2 2.1-8.7-5-4.6-2.7-8.9-4.6-8.4-4.4m-581-274.1 10-.4 4.6-.2 9.7-2.5 6.7-1.7-2.1 9.8-.9 4.4-.1.3-.3 1.3v.4l-2.2 9.7-.7 2.9 9.5-3.1 9.5-3.1 1.6-.5 9.2-3.8 9.2-3.8 2.3-1m-33.9-48.4.6 10 .2 3.7-.5 10-.2 4.3-9.6 2.9-6 1.8-10 1-3.6.3m6-28.3-1.6 9.9-.6 3.6-2.5 9.7-1.3 5.1-1.6 2.9-1.6 2.9-3.7 6-4.5 7.3m204.8 33.5-8.2 5.8-.4.3m-19.7-146.6-9.6 2.8-2.8.8-9.7 2.5-.4.1-1 10-.7 6.6-2.4 9.7-2.4 9.7-.9 3.7 9.1-4.2 7.8-3.6 9.3-3.7 7-2.8m0 0-.7-10-.5-6.9-1.4-9.9-.7-4.8m-192.9 83.6-8.8-4.7-2.5-1.3-9.1-4.1-1.4-.6m-5.8 31.3 8.2-5.7 7.8-5.4 1.7-1.4 7.7-6.4 2.1-1.7m-15.8-14.5-3 1.9-3 1.9-8.8 4.8-4.8 2.6-5.1 2.8-8.8 4.8-3.2 1.8-8.8 4.8-8.8 4.8-5 2.7-8.7 5-8.7 5-5.8 3.3-8.5 5.3-8.5 5.3-1.9 1.2-8.2 5.7-6.7 4.6-8.1 5.9-4.6 3.4-7.8 6.3-3.3 2.6-7.3 6.9-2.4 2.2m93.7-77.1 8.4-.7 9.7 2.3 1.3.3 9 4.4 3.2 1.6 8.3 5.6 4.5 3 8 6 5.4 4 8.2 5.7 4.1 2.9 4.1 2.9 4.5-5.9 6.1-8 3.7-4.9m-190.7 106.2 7.1-4 4.8-2.7 8.9-4.6 3.8-2 1.5 3.8 1.9 4.9 2.2 8.7-3.9 1-1.4.4-.6.2-7.6 2-9.7 2.3-3.4.8m-3.6-49.4 7.3 4 6.8 5.9-7.6 6.5-3.3 2.8-7 7.1-1.7 1.7-1.1 1.1m.1.1 3.8 4.2m0 0 2.7 5.2m573.7-190-.5 5.2-3.4 2.8m18.5-11.4 3.1-2.6.3-4.7-7.6 4.6-8.6 5.1-1.8 1.1m41.3-56.2-8.8 4.7-1 .5-9 4-3.1-6.8-2.3-4.7m27.2 15.7-1.4-7.1-1.6-6.3m-343 254.5-2.5-1-9.3-3.7-9.3-3.7-.3-.1-1.7-.7-9.1-4.1-7.3-3.2 9.2-3.9 9.2-3.9.4-.2 1.7-.7 9.4-3.4 9.4-3.4 3.7-1.3m.1.1-8.3-5.5-5.2-3.5-6.6-7.5-1.6-1.8-1.9-9.4 1.9-9.8m508.8 222.4 9 4.3 9 4.3.9.4 8.9 4.6 7.2 3.7-9.1 4.2-2.3 1.1-9 4.3-3.1 1.5m-461-196.1-9.2-3.9-9.2-3.9-1.2-.5-.8-.3-9-4.4-8.3-4.1 9.5-3 9.5-3 4.4-1.4 9.6-2.8 9.6-2.8 2.4-.7 8.8 4.7.2.1 8 4.2 9.1 4.1 3.8 1.7 6.8 3.1m-33.5-183-2.5 9.7-.6 2.3-4.7 8.8-1.9 3.5-5.8-7.2-5-8.4m10 187.2 9.6-3 9.6-3 3.8-1.2 4.4-1.2 9.6-2.7 7.1-2m341.3 211.9-7.4 6.7-.4.4-6 6.3-3.2 4.3-1 2.8.4 2 2.5 1.1m51.9-45 9.1 4.1 9.1 4.1 2.2 1 8.9 4.5 8.9 4.5.5.3-9 4.3-.9.4-8.6 4.2-9-4.3-9-4.3-.8-.4-9.2-3.9-9.2-3.9-2.7-1.2m0 .1-8.4 5.4-.2.1-8 6-.5.4-9.4-3.4-9.4-3.4-7.3-2.7-9.4-3.4-9.4-3.4-9.4-3.4-1-.4m-383.7-255.7 2.3-9.7.8-3.1 1.7-9.9.6-3.6.6-10 .2-3.6-.1-10v-3.6l9-4.5 7-3.5 8.5-5.3 5.6-3.4 4.5 8.9.8 1.5 3.2 9.5.6 1.6-8.4 5.4-8.4 5.4-2.2 1.4-9 4.4-9 4.4-2.8 1.4m147.2 144.9 9.5-3.1 9.5-3.1 1.7-.5 9.6-2.8 9.8-2.9m-91.4-9.1 9.2 3.9 9.2 3.9 7 3 9.2 3.9 9.2 3.9 7.4 3.1m40.3-12.5-9.1-4.1-9.1-4.1-6.5-2.9-9.1-4.1-9.1-4.1-6.2-2.7m-.2 0-9.6 2.8-9.6 2.8-1.1.3-9.5 3-9.5 3-2.8.9m374.3 157.3-9.2 4-1.7.7-8.8 4.8-9.3-3.7-9.3-3.7-6.8-2.7-9.3-3.6-9.3-3.6-9.3-3.6-.3-.1m86.7-28-2.7-1-5.6.8-7.5 2m47 22.6 6.5-1.9 4.9-.9 2.3.8m-271.7-24.5-7.6 6.5-3 2.5-7 7.1-1.2 1.2-4.5 6.2-1.6 4.4.4 3.2 3.2 1.7m62.6 18.3-3-1.4-.4-2.8 1.4-3.8 4-5.6 7-7.2.5-.5 7.5-6.6 2.1-1.8m-24.2-427.1 4.3-1.7 3.4-1.8m-14.5-1.5 2 1.2 1.2.7 3.6 3.2m7.7-3.6-4.9-3.3-1.7-.9-2-1m-.1 0-2.2 2-3.6 1.7-6.5 1.7-9.8 2-.3.1-9.8 2-1.2.2-2.7.5-9.8 2-6.6 1.3-9.8 2-7.9 1.6-9.8 2-8.2 1.7-9.8 2-8.3 1.7-9.8 2-9.8 2-.9.2-9.8 2-9.8 2-4.8 1-9.8 2.1-9.8 2.1-4.5.9-9.8 2.1-9.2 2-9.8 2.2-4.2.9-9.7 2.2-.8.2-8.8 2.2-8.5 2.3-8.6 2.4m420.5 363.1 9 4.3 9 4.3 6.9 3.3 9 4.4 9 4.4 4 2-7.4 2.3-9.5 3-.4.1m-81.7-52.5 9.1 4.2 9.1 4.2 8 3.7 9.1 4.2 9.1 4.2 7.8 3.7-8.5 2.4-9.6 2.9-1.4.4 9.1 4.1 9.1 4.1 7.7 3.4 9.1 4.1 9.1 4.1 5 2.3-9.5 3.2-4 1.4-9.4 3.5-4.5 1.6-9.2-4-9.2-4-6-2.6-9.2-3.9-9.2-3.9-8.6-3.6-9.2 3.9-2.8 1.2-8.9 4.6-1.1.6m-18.6 13.4-7.5 6.7-1.2 1.1-6.7 7.1-3.6 4.9-1.2 3.3.4 2.4 2.8 1.2m-161.5-141.9 9.2 3.9 9.2 3.9 8.2 3.4 9.2 3.9 9.2 3.9 8.4 3.5m-15.4-34.4-9.6 2.9-8.9 2.6-9.5 3.1-9.5 3.1-.6.2m53.5 22.4 9.5-3.2 9-3 9.6-2.9 7.9-2.4m0 .1-9.1-4.1-9.1-4.1-7.5-3.3-9.1-4.1-9.1-4.1-7.3-3.2m100.4 91.6 9.3 3.6 9.3 3.6 9.3 3.6 1.4.6 9.3 3.6 9.3 3.6 9.3 3.6 1.2.5-8.5 5.3-1 .6-8 6-1.3 1-9.4-3.3-9.4-3.3-9.4-3.3-2-.7-9.4-3.3-9.4-3.3-9.4-3.3-2.3-.8m-114.2-298.4-8.8 4.8-8.8 4.8-7.1 3.9-8.7 5-8.7 5-8.7 5-.4.2m49.3-7.6 1.4-9.8.5-10 .1-1.3m-51.2 28.6-.1 10v1.8l-.5 10m0 0 8.6-5.1 8.6-5.1 7.2-4.3 8.6-5 8.6-5 8.1-4.8m-98 44.2 1.7 9.8.3 1.9 1.8 6.1m8.1-17.8h-11.9l7.6-6.5 7.6-6.5 7.6-6.5 1.1-.9m-18.8 44.3-.2-1.2v-.2l-.1-.4-.6-3-.3-1.3 4.7-7.5m9.1-6.3-5.7-4m-3.4 10.3 8.2-5.7.9-.6m186.9 180.3 9.2 3.9 9.2 3.9 9.2 3.8 9.2 3.9 9.2 3.9 9.4 4-9.3 3.8-4.2 1.7-8.9 4.5-2.4 1.2m-581.7-95.5-3.1 1.7-4.3.9 9.8 1.9 1.3.2 10 .8 2.3.2m15.4-12-2.8 5.1-3.1 3.2-10-.2-3.2-.1-9.9-1.3-2.3-.3m697.6 182.3.4 1.9 2.5 1.2m-310.7-422.8 1.8 9.8.7 3.8 1.3 9.9.3 2.7m43.3-44.3-9.3 3.6-9.3 3.6-4.4 1.7-9.3 3.6-9.3 3.6-5.6 2.1m4 26.2 9.1-4.2 9.1-4.2 7-3.2 9.1-4.2 9.1-4.2 5.3-2.4m-.1 0-2.1-9.8-.2-1-2.7-9.6-.5-1.6m118-58-5.1-3.9-5.8-4 3.8-3.3 4-7.8 1.3-2.5m-32.9 21.1 3.5-.8 6.2-1.4 6.5-1.8 3.8 4.1 3.6 4.6 5.6-1.9 5.5-2.3m-45.2-6 3.2.2 3.5 1.9 3.7 3.3m81.7-121v72.4m16.2-85.4-6.8 2.6-6.8 7.4-2.7 3m.2 72.4 8.3-5.6 1-.7 7.3-3.6m.1-.1-.1-10-.1-10-.1-10v-7.9l-.1-10-.1-10-.1-10-.1-7.6m-39.8 206.1 3.2-2.6.7-4.7 7-5.3 7.3-5.8m-565.2 254 9.9-1.7 4.8-.8 9.7-2.2 6.1-1.4 9.7-2.3 7.7-1.8 9.8-1.8 9.8-1.8 3.8-.7-4.8 8.8-2.3 4.2-2.8 8m7.7-45.6-9.4 3.5-9.4 3.5-.6.2-9.5 3.2-7.1 2.4-.9 10-.1.8-1.8 9.4m41.1-8.4-1.8-9.8-.6-3.4.1-10v-1.4m456.2-245.9 4.7 2.3 7.8.3m-10.1-4.1-2.1.4-.3 1.1m20.6 1.9-8.2.7-6.3-2.2-3.7-1.9-3.7-1.7m162.7 29.7 9.9 1.4.4.1 9.2 1.2m0-.1h5.8m26.8-.2-10 .4-3.5.1-10-.2-3.3-.1-9.4-.9-4.2-1.1m40.5-3.6-10 .9-3.5.3-10 .7-3.3.2-9.4.8-4.2.7-6.3-.9-9.5-1.6-9.8-1.9-2-.4-9.8-1.9-4-.8-9.8-1.9-5.7-1.1-9.8-1.9-6.9-1.4-9.8-1.9-8.1-1.6-9.8-1.9-.5-.1-9.8-1.9-.6-.1-9.8-1.9-9.8-1.9-4.8-.9-6.2-1.1-9.9-1.7-9.8-1.7h-.2l-9.9-1.1h-.1l-3.8-.1m175.3 25.5-9.8 1.8-.5.1-4.2 1.9 4 1.9m68.6-1.8-6.5 2.5-9.9 1.6h-.2l1.9-2.2-1.8-3.1 9.9-1.6h.2l6.5-2.1m-58.2 1 9.1 2.5 5.8 2.2 2.2 2.1-2.3 1.4m-159.3-55.8-9 4.3-1.5.7-8.9 4.5-1.4.7-6.9 3m-.1 4.2 3.1-2.9 3.9-4.3m-9.2 5.1.5 1.1 1.8.9m0-4.1-2.3 2.2-2 .7-3.3 2.6 2.6 1.6 1.7 1.8m-134.4 5.2-5.1-4.3-5-2.6-4.8-.8m-32.5 18.8 9.7-2.3 9.7-2.3 4.2-1 9.7-2.3 9.7-2.3 4.3-1 9.7-2.3 9.7-2.3.5-.1 9.7-2.2 7.9-1.8 9.8-2.2 7.9-1.8 9.8-2.2 7.5-1.7 9.8-2.2 6.1-1.4 4.1-.9 1.8-.4 7.4-1.7m-171.8 26.7 5.8-1.1 5.8.9 5.7 3 5.4 4.9m393.4 17.6 5.5-.4m16.6-4.1 1.8-1.9-1.8-3.1 3.4-2.3 1-2.4-.8-2.3-2.2-2.2-3.2-2.1-3.1-1.8-4.5-2.2-7.6-3.3-9.3-3.7-1.4-.5-9.3-3.7-2.9-1.2-9.3-3.7-3.3-1.3-9.3-3.6-3.9-1.5-9.3-3.6-5.2-2-9.4-3.5-7.9-2.9m-59.3-24.6 3.9-1.8 3.7-1.1m-8.4-27.4.2 10 .2 10v.9l.3 9.5m7.6-3-.6-9.5-.3-10-.3-9m0 0-3.3.2-3.8.8m-281.3 215.3-.9 10-.6 6.9.1 10 .1 10v.8m49-64.1-8.8 4.8-8.8 4.8-7.7 4.2-8.7 4.9-8.7 4.9-5 2.8.7-10 .3-4.5.3-10 .1-4m21.1 45.5 8.4-5.4 8.4-5.4 8.2-5.3.2-10 .1-3.7v-13.7m275.2-123.2 6.4-2.8 4.7-2.4m-58.1-5.9 8 1.9 9.4 2.2 4.4 1 9.7 2.4 9.7 2.4 5.8 1.4m11.2-5.4-9.6-2.7-9.6-2.7-4.5-1.3-9.6-2.7-6.5-1.8-3.4-1-1-.3m0 .1-6.3 3.1-7.7 3.4m17.5-20.5v1.2l.7.8.4.4m-.2-.1-.2-1.1-.7-1.3m135.7 58.9 9 4 5.2 3.2 1.7 2.4m-21.2-5.2-6.7 2.4-9.8 2.2-.2.1m31.7 2.9-5.5-3.5-9.2-3.9-.3-.1m-16.6 4.6 9.4 3.4.2.1 5.6 3.2m-129-74.6-1.3.2-1.5.5-3 1.3-3.7 1.6-4.4 2.1-5.5 2.8-6.9 3.5-8.4 3.8-9.3 3.7-.5.2-9.5 3.3-3.3 1.1-9.9 1.3-1.1.1h-6.4m79.8-15.9-3.8 1.9-.1.1-3.1 1.6-1.6.8-9.6-2.8-1.7-.5-4.6-2-1.8-2.3-.7-4.5m-16.3 8.2 1.2 4 2.4 1.8 5.1 1.6 9.7 2.3 2.4.6-9.1 3.6-9.3 3.7-1 .4m-1.4-18-.6-9.2-.1-4.2-.1-5.1-.1-10v-1.9l-7.5 6.6-2.8 2.5-.8.7-6.9 7.2-3.8 3.9m0 .1.1.7 1.3 9.9.2 1.8.8 5.8m0 0 9.3-3.7.6-.3 9.1-4.2 1.2-.6m36.2-101.2-.6-4-1.9-9.8-1.1-5.9-3.1-9.4-2.9-5.6-3.2-3.4-4.2-2.2-5.3-.8-6.8 2.2-6.5 7.6-3.4 4-4.8 8.8-4.8 8.8-4.6 8.3-4.3 9-4.3 9-4.3 9-3.3 6.9-4.1 9.1-4.1 9.1-4.1 9.1-2.7 6.2-1.6 3.6-4 9.2-4 9.2-1.5 3.4-4.3 9-1.4 2.9-2.5 3.7-2.7-.1-1.7 1.1m44-59 4.4-9 4.4-9 4.4-9 .8-1.6 5-8.6 5-8.6 2.7-4.7-.3-10-.3-10.1-1.3-5.7m-32.8 62.1 2.6-2.4 2.6 4.1 2.1 9.8.6 2.8m52.8-62.5.2 10 .2 10 .2 10 .1 5.1.2 10 .2 10 .2 10 .1 5.4-4.6 1.4-5.8 2.3.1 10 .1 10v2.1l.4 9.8m-16.3 8.5 9-4.5 7.3-3.8 5.8-3 4.6-2.3.5 4.7 1.5 2.6 4.2 2.3 5.6 2 1.2.4 3.6 1.3m-7.9-9.1-1.5-2.6.4-4.6m-20.6-125.7.9 5.8.2 10 .2 10v.8h5.4l4.2 1.2m6.4 6.2-2.9-4-3.3-2.2-.3-10-.3-9.4-.8-5.3m7.6 30.9-.5-10-.4-7.3-.8-4.7M948 137.44l1.4-2.5 2.6-.2 4 2.3 5.6 4.8m14.6 11.4-7.5-5.1-5.5-5-1.6-1.4 4-9.2 4-9.2 1.3-3 2-4.5 4.1-9.1 4.1-9.1 2.4-5.3 1.3 9.9 1.3 9.9.2 1.7.7 5.9 1.1 9.9.6 5.4-.7.9-6.2 7.9-1.1 1.4zm74.9-21.1-.2 3.1-.1 1.8m.4.2.1-1.8-.2-3.3m127 54.4 2.7 1.4 2.6 1.7m-.1 0 8.3 3.7 4.9 2.7m-833.4 255.9 8.4 5.5 5.6 3.6m1.5-5.1-9.7-2.5-5.7-1.5m25 13.7 1.7-3.6.8-4.8m-13.6 3.8 9.2 3.9 1.9.8m2.5-8.5-9.9-1.1-2.2-.2m673.4-326.5-.2 1.1-.6 1.6m.3 5.3v-.5l.2-3.8.2-3.7.2-3.9.1-4.6v-6.6m-3.2 16.6.2 1.9.3 1.6.8-1 .7-1.3m-.3-8 .6 3.8-.1 4.1-.8-1.1h-1.3m-36.4 31.7-9.8-2-2.9-.6-7.6-1.3-.2-2.6-1.1-2.8-8 1.8-7-1.9-1.7 4.7.5 2.1-5.5 1.2-6.2 2.1 4.5 3 3.7 2.5 7.6 1 9.8 2.1 2.3.5m57-116.3-2.1-9.8-.6-3-3-7.2.3 10 .3 10 .3 10v1.4l.3 10 .3 10 .3 10 .1 1.8 3 .4 2.4 1.3m.2.1-.4-10-.4-10-.1-3.3-.4-10-.4-10-.1-1.7m-43.4 160.2.4-5.9-.5-6.7 7.7-5.9 6-4.8m-43-11-6.4 1-1.6.9 7.3 1.5 8.9 1.4 5.7.9m120.5 21.4-9.9-1.6-5.7-.9-9.9-1.6-6.7-1.1-9.9-1.7-8.2-1.4-9.8-1.8-9.8-1.8-1.4-.3-4.8-.9-.4-.1-.5-.1-.7-.1-.7-.1-2.7-.5-.3-.1-.4-.1-4.8-.9-1.7-.3-2.4-.5-.9-.2-3.1-.6-1.3-.3-6.7-1.2-3.7-.7-1.4-.2-.5-.1-7.6-1.4-4.8-.9-3.4-1-1.8-.6-8.7-4.2m73.9-50.9-1.4-.9-1.9-2 2.7-3 2.2-.8m.1-.1-.3-8.3-.4-10-.2-4.7 1.4 1.4.5-2.2m.1 0-.6-10-.6-10-.3-4.1-1.1-9.9-1.1-10.1-.5-10-.1-2.8m-45.5 146.7-.4.2-.1-.3M508 407.44l.5 10 .1 2.5v11.5l9.2-3.8 9.2-3.8 4.2-1.7 9.2-4 9.2-4 4.7-2 1.4-9.9.2-1.6 1.6-9.9.6-4-9.3 3.8-9.3 3.8-7 2.9-9.2 3.9-9.2 3.9zm469.3-219.4 4.7-1m233.6 428.7-1-1.5m-29.3-421-1.5 2.1-3.8 2.3-9.4-3.4-3.8-1.3-9.5-3.2-5.8-1.9m-93.4-46.9-5.7-2.9-1-.6-.9-.5-.2-.1-1.6-.8-2-.9m5.5-14.2-.4 1.1-1.2 2.2-.8 4-.8 2.7-1.4 1.9-.9 2.3 2.9 2.5 1 .4.7.3 6.7 2.6m2.6 32-9.8-2.1-2.7-.6-9.8-2.1-3.4-.8-5.1-1.1-9.8-2-7.3-1.5-9.2 3.9-2 .9-8.9 4.5-1.3.6m0 0 9.8 2 9.8 2 1.8.4 1.7.3 9.8 2 9.8 2 3.5.7 4.6 1 9.8 2.2 7.1 1.6m-20.5 10.2-4.5-1.1-4.4-1.1-3.7-3.6 3.1-4.4 8.4-4.8 6.5-2.7 4.9-2.1 9.4-3.5 2.4-.9m-8.4-58.6-.3-10-.1-3.9m-89.4 77.9-1 2.5.8 2.4 2.5 2.3m26.6-12.8-7.8 5-8.3 4.4-7.4-4.1-3.2-1.8-2.2 2.1m167.8-8.7-.2-1.3-.6-.8m-71.3-26.5 9.4 3.5 9.4 3.5.4.2 9.4 3.4 9.4 3.4 1.4.5-.8.7-1.2 1.3m0-.1 9.5 3.2 9.4 3.2 9.4 3.4 6.4 2.3m-216 25.1 2.8 7.8 2.7 8.1m-82.9-10.6-4.8-7.9-5-5.9m-37.2 27.1 9.6-2.7 9.6-2.7 4.5-1.3 9.6-2.7 9.6-2.7 4.1-1.1m-76.2 1.8 9.7-2.4 9.3-2.3 5.2 6.7 4.7 8.8.3.5m-63-2.5-4.5-5.8-6.1-3.7-7.8-1.1-8.7 1.3m-.6 4.4 6.5 3.7 4.9 5.7-2 .6-2 .6m147.4 47.7-9 4.4-9 4.4-6.1 3-8.9 4.6-8.9 4.6-8.3 4.3-.4-10-.1-2-.9-10-.1-1.6-9 4.3-9 4.3-5.7 2.7-9 4.4-9 4.4-2.9 1.4v-15.5l-.3-10-.2-6.7 9.3-3.6 9.3-3.6.3-.1 9.4-3.5 9.4-3.5 3.4-1.3-2.6-9.7-1.2-4.3-3.5-9.4-1.1-3-9.6 2.7-9.6 2.7-.8.2-9.6 2.8-6.4 1.8-2.9-9.6-.3-1.1-4.2-7.4-4.9-5.5-5.9-3.4-7.1-1-7.6 1.2m69.9 326.5-7.8 6.3-4.7 3.8-7.1 7-2.6 2.6-5.3 7.3-2 5.4.3 4.1 3.7 2.1m60.5 17.9-3.5-1.9-.3-3.7 1.8-4.9 4.9-6.8 7.1-7.1 1.9-1.9 7.7-6.4 3.8-3.2m43.6-257.6 8.6-5 8.6-5 1.3-.7 8.6-5 8.6-5 .9-.5m-36.3 2.7.2 9.9-.6 8.6m36.8-21.4-.1-7.5-.9-8.7-8.8 4.8-8.7 4.7-8.8 4.7-8.8 4.7-.3.2m67.2-20.9-8.6 5-5.4 3.2-8.6 5-8.1 4.8-1.1 5.9-4.1 3.2m-33.3-28 8.9-4.5 8.2-4.1 8.9-4.5 7.8-4-2.6-9.3-2.8-8.6-8.9 4.5-7 3.5-9 4.4-7.6 3.7m.2-.1 2.2 9.3 1.7 9.8m-9.6-38.2 9.3-3.7 7.3-2.9 9.3-3.7 6.8-2.7-3.2-7.4-3.6-6.8m0 0-9.6 2.7-7.1 2-9.6 2.7-7.5 2.1m-.1-.1 4.2 8.4 3.7 9.3v.1m-27.5 56.5-1.2-9.9-.1-.6-1.7-9.9v-.2l9.1-4.2 9.1-4.2 1.2-.5 9.1-4.2 7.9-3.7-2.6-9.5-3.1-9.5v-.1l-9.3 3.6-7.5 2.9-9.3 3.6-9.3 3.6-.5.2-3.4-9.4-.7-1.9-4.2-9.1-.5-1 9.6-2.7 9.6-2.7.2-.1 9.6-2.7 7.6-2.1-4.4-6.9-4.5-5.4-4.6-3.9-4.5-2.3-4.3-.6m130.7 323.4-7.2.5-9.6 2.2m0 0 9.1 4.2 9.1 4.2 7.1 3.3 9.1 4.2 9.1 4.2 7.3 3.4m-.1.1 8.9-2.2 6.7-.7m-143.9-354 3.7.4 4.1 2.1 4.2 3.6 4 4.8 3.8 5.9 9.6-2.7 5.8-1.6 9.6-2.7 3.3-.9-3.4-5-2.4-2.8-1.3-1.5m156.3 379.9-3-1.4-6.2.8-8.2 2.1m-181.6-96.2-8.3.3-9.8 2-1.2.2m.1.2 9.1 4.2 9.1 4.2 6.1 2.9 9.1 4.2 9.1 4.2 6.4 3m-.1 0 9.8-2.1.5-.1 7.8-.4m-114.6-42.3 9.1 4.2 9.1 4.2 5.5 2.6 9.1 4.2 9.1 4.2 5.9 2.7-9.7 2.5-2.6.7-9.6 2.7-5.6 1.5 9.1 4.1 9.1 4.1 6.8 3 9.1 4.1 9.1 4.1 7 3.1 9.6-2.7 4.7-1.3 9.7-2.5 1.9-.5 9.1 4.2 9.1 4.2 6.6 3.1 9.1 4.2 9.1 4.2 6.9 3.2-9.7 2.6-1.1.3-9.6 2.8-3.9 1.1 9.1 4.1 9.1 4.1 7.8 3.5 9.1 4.1 9.1 4.1 8 3.6m0-.4 9.6-2.8 3.1-.9 9.6-2.6.4-.1 9.1 4.2 9.1 4.2 7.6 3.5 9.1 4.2 9.1 4.2 7.8 3.6-9.2 2.6-9.6 2.9-2.2.7-9.1-4.1-9.1-4.1-8.5-3.8-9.1-4.1-9.1-4.1zm0 0-9.6 3-7 2.2-9.5 3.2-7.8 2.7m-27.5 12-9.3-3.6-9.3-3.6-9.3-3.6-.7-.3-9.3-3.6-9.3-3.6-9.3-3.6-.5-.2m33.9 37 8.2-5.8 3.1-2.2 8.6-5 3.2-1.9m-57.2-21.9-8.7 4.9-4.3 2.4-8.2 5.7-4.1 2.8m-58.8-20.8 9.4 3.4 9.4 3.4 9.4 3.4.8.3 9.4 3.4 9.4 3.4 9.4 3.4 1 .4 9.4 3.4 9.4 3.4 9.4 3.4 1.3.5 9.4 3.4 9.4 3.4 9.4 3.4 1.5.5 9.4 3.4 9.4 3.4 9.4 3.4 1.8.6 9.4 3.4 9.4 3.4 9.4 3.4 2.1.7 8.1-5.8 2.2-1.6 8.6-5.2 2.1-1.3-9.3-3.6-9.3-3.6-9.3-3.6-1.3-.5-9.3-3.6-9.3-3.6-9.3-3.6-1-.4 9-4.4 3.7-1.8 9.3-3.7 5.5-2.2-9.2-3.9-9.2-3.9-8.9-3.7-9.2-3.9-9.2-3.9-8.7-3.6-9.3 3.6-6.9 2.7-9.1 4.2-5.1 2.4-8.6-4.2-9.3-3.6-9.6-3.7-9.3-3.6-9.3-3.6-9.3-3.6m233-418.3.4 10 .1 2.4.3 6.2m82.6 86.8-9.7 2.4-2.6.6-9.7 2.4-2.6.6m-.1.1 9.7 2.5 4.8 1.2 9.7 2.5 2.6.7 9.9-1.4 3.5-.5 9.9-1.6 3.2-.5-9.5-3-3.7-1.2-9.6-2.9-5.9-1.8m-57.3-2.2 9.7 2.4 7.2 1.8 9.7 2.4 6.1 1.6-9.4 3-3.9 2.7 3.6 2.4 9.4 1.7m48.6-26 9.4 3.4 5.1 1.8 9.3 3.6 3.2 1.2-.3-1.9-1.7-1.7-9.3-3.7-2.4-.9-9.4-3.5-4.1-1.5m.1-.1.7 1.5-.6 1.8m-80.6 20.8-9.4-2.1-3.7-3.1 3.6-3.7 9.1-3.9m24.2-7.7-9.6 2.9-2.6.8-9.5 3.1-2.5.8-9.7-2.3-8.6-2.1m92.6 1.2-7.1 2.7-9.6 2.8-.2.1-9.6-2.9-6.6-2-9.6-2.8-7.4-2.2m-138-1.4-2.1-1.5-.7 2.1.1 4.4 3.5-.3.5-1.6m163.1-12.6-9.5-3.1-7.7-2.5-9.6-2.9-9.6-2.9-1.3-.4 3.2-1.9 2-1.6-9.5-3.1-9.5-3.1-2.9-1-9.5-3.1-9.4-3.1 2.8-1.5.6-1.6 4 1.4m57.1 35.2-9.6-2.9-8.8-2.6-9.7-2.6-9.7-2.6-2.4-.7-8.3 3.1-9.4 3.4-.8.3 9.7 2.4 9.7 2.4 2.7.7 9.6 2.7 9.1 2.5 9.5-3.1.5-.2zm-356 307.5-8.8 4.7-6.5 3.5-8.4 5.5-6 3.9m84.9 3.6-9.3-3.6-9.3-3.6-9.1-3.5-9.3-3.6-9.3-3.6-8.8-3.4m-29.8 17.6 9.4 3.3 9.4 3.3 9.4 3.3.3.1 9.4 3.3 9.4 3.3 9.4 3.3.5.2 8.3-5.6 5-3.4 8.8-4.8 5.4-3 9.1-4.1 6.4-2.9 9.3-3.6 8.2-3.1-9.2-3.9-9.2-3.9-7.9-3.3-9.2-3.9-9.2-3.9-7.7-3.2-9.4 3.5-9.4 3.5-.2.1-9.1 4.1-7.8 3.4-9.3-3.6-9.3-3.6-8.6-3.3-9.3-3.6-9.3-3.6-8.2-3.1m-31.6 18.8 9.4 3.3 9.4 3.3 9.1 3.2 9.4 3.3 9.4 3.3 9.5 3.4-7.8 6.2-5.6 4.4-7.2 7-3.3 3.2-5.8 7.9-2.1 6 .3 4.5 4 2.3m167.8-289.7 9-4.5 8.4-4.2 1.2 9.9.1.9.7 10 .1 1-8.8 4.7-8.8 4.7-.4.2-8.8 4.7-8.8 4.7-2.8 1.5-.1-10v-2.2l-.6-10-.1-1.9 9-4.4 9-4.4zm126.5-30.1 3.1-2.9 1.3-4.8 6.7-5.7 6.1-5.3m-469.6 291.4-5.1-3-.4-5.7-9.6-3-9.6-3-2.1-.6-9.7-2.2-9.7-2.2-.6-.1-1.5 6m.1-.1-.6 2.1m86.6-168-9.6-2.8-3.3-1-8.9-4.6-3-1.6 2.4-2.1 2.4-2.1m253.3 125.8-9.7 2.4-3.3.8-9.7 2.6-6.4 1.7-9.1-4.1-9.1-4.1-5.5-2.5-9.1-4.1-9.1-4.1-3.9-1.7 9.7-2.6 7.1-1.9 9.7-2.4 4-1m-115.9 37.2 9.2-3.9 9.2-3.9 1.2-.5 9.4-3.4 9.4-3.4 2.8-1 9.3 3.9 9.2 3.9 4.6 1.9 9.2 3.9 9.2 3.9 6.3 2.7-9.4 3.4-9.4 3.4-1.5.6-9.2 4-9.1 3.9m-164.1-171.7 9.1 4.1.9.4 8.8 4.7 1.9 1m87.7-81.2-9.4 3.5-2.5 1-9.4 3.5-1.7.6-9.4 3.5-1.7.6-9.3 3.6-2.4.9-9.3 3.7-2.5 1-9.2 3.9-1.7.7-8.8 4.7-1 .5-7.9 6.1-.7.5-6.6 7.5-1.1 1.2-5.3 8.4-1.7 2.7-4.8 8.8-2 3.7-8.8-2.4-7.4-.9m48 19.4-8.9-4.5-2.2-1.1 3.8-9.3 1.7-4.2 4.1-9.1 1.2-2.6m-.1.1-8.8-4.8-.2-.1-8.7-3.9-7.7-2-5.9-.5m474.1-73-.6 5.9-1.1 6.1m-4.4 8.5 2.8-3.3 1.6-5.1 5.6-5 4.9-4.4m-.1.1.2-1m-403.3 269-4.8 3.7-7.9 6.1-2.6 2-7.3 6.9-4.7 4.4-6 8-.7.9-2.4 6.9.4 5.3 4.6 2.8m54.5 16-4.2-2.5-.3-4.9 2.3-6.5 5.9-8.1.3-.4 7.2-6.9 4-3.9 7.9-6.2 6.4-5.1m346.7-277.7 2.3-3.5 1.6-5.2 1-.9m-189.6 230.8-8.8.2-9.8 2-1.8.4-9.1-4.2-9.1-4.2-4.9-2.3-9.1-4.2-9.1-4.2-3.3-1.5 9.8-1.9 2.5-.5 9.3-.1m-149.7-53.7-2.5 9.7-.5 2.1-2.5 9.7-.3 1-9.1 4.1-9.1 4.1-5.2 2.3-9.2 4-9.2 4-3.1 1.4 2.7-9.6.4-1.3 2.8-9.6.9-3.3 9.3-3.7 9.3-3.7 2.7-1.1 9.1-4.1 9.1-4.1zm-63.2 96.2 9.3 3.8 9.3 3.8.7.3 9.4 3.4 9.4 3.4 3.6 1.3 8.5-5.3.1-.1 7.7-4.8 8.9-4.5 5.5-2.8 3.1-1.6 9.3 3.6 7.1 2.7 7.9 3 9.3 3.6 9.3 3.6 7.5 2.9-8.9 4.6-7.6 4-8.4 5.4-6.9 4.4-9.4-3.3-9.4-3.3-8.3-3-9.4-3.3-5.7-2-3.8-1.3-.5-.2-5.8-2.1m139-81.4.7-.9-.8.7m-350.3 88 2.4-6.1 1.7-7.6-10 .5-3.6.2-10-.2-3.2-.1.5-4.9-.9-5.2m-5.3 22.2 1.9-1.2 1.3-2.5 9.7 2.5 2.6.7 9.9 1.4 3 .4m431-149.6 5.8-4.2 2.5-7.8 8.6-5 8.6-5 4-2.3 8.6-5 8.6-5 1.4-.8-1.8 6.9-4.9 3.7m-94.1 58.2 7.6-6.5 1.6-1.4 2-8.6-8.5 5.2-8.5 5.2-1 .6-8.5 5.3-4.1 2.6 2.2 6.1-1.2 6.6-8.7 4.9-2 1.1-2.5 1.9M385 469.44l9.3 3.7 1.9.8 9.7 2.4 2.3.6 2.7-2.3 2.5-3.8 10 .5 2.8.1 10-.7 3.4-.2m-53-72.7-6 8-2.3 3.1-5 8.7-1.9 3.3v.1m-4.4-1.4 4.4 1.4 2.4 1.1 2.2 1m0 0 .2.2 3.8 3.6-6.2 7.8-1.9 2.4-5.2 8.6-3.7 6.1m.1.1 7.2 6.9 4.7 4.5 8.5 5.2 1.3.8-1.7 1.2-2.8.4-7.8-6.3-.4-.3-5.9-8.1zm792.1-274.5 1.6 1 1.4 1.4-9.4-3.5-4.3-1.6-9.4-3.5-4.9-1.8-.5 1.5-1.8 1.8 9.5 3.2 6.1 2.1 9.4 3.3 5.4 1.9-2.3 2.2-4.5 2.5-9.5-3.1-6.3-2-9.5-3-7.1-2.2 5.4-2.5 3.4-2.2m-421.3 43.4 3.2 7.2.5 9.4-9.5 3.1-.5.2-8.8 4.7-1.5.8m-101.3 69.6-9.7-2.5-2.3-.6m-213.6 143.7 8.2-5.7 4.7-3.2 8.5-5.3 2.1-1.3 2.5 5.2 1.2 5.5-9.8 2-2.2.5-9.9 1.5zm32.3-64-6.6 7.5-2.2 2.4-7.3-1.7-6.6.5m322.2-189.6 6.7 3.7 5.1 5.6-9.4 3.3-4.6 1.6-9.4 3.5-4.2 1.6m3.2-21 8.8-1 8 1.3-2.1.7-2.1.7m-331.8 244.9 3.6 9.3.8 2.1 5.2 6.1-4.1-2-3.7-2.8-2.7-2.6-2-2.7-1.8-2.7-1.6-3.7-1.7-5-1.2-5.5-.5-5.3.5-4.6.9-8m16.6-3.5-3.6 9.3-1.2 3.2-1.9 9.8-1.6 8.5m281.7-185.3 3.1 9.5 1 2.9 2.5 9.7.8 3m15.5-36.5-8.8 4.7-2.2 1.2-9.1 4.2-2.8 1.3m-11.7-21.6 5.4 8.4.9 1.4 4.2 9.1 1.2 2.7-9.2 3.9-4.2 1.8-9.3 3.6-4.3 1.6m-8.7-22.9 4.5 8.9.7 1.4 2.5 9.7.8 2.9-9.5 3.1-2.8.9-9.9 1.6-.9.1m83.6-76.6 8.7-.9 8 1.3-9.5 3.2-5.2 1.7-9.4 3.3-4.6 1.6m.1.1 6.8 3.8 6 5.8m-97.4 42.6 7.2-5.5 9-4.4.3-.2 9.3-3.8 1.7-.7 9.3-3.7 2.7-1.1 9.3-3.7 2.6-1 9.3-3.7 1.6-.6 9.3-3.8 1.5-.6 9.2-3.9 2.4-1 9.3-3.7 3.4-1.4 5.7 7.2 5.3 8.2-8.5 5.2-2.5 1.5-8.6 5.1-2.6 1.6-5.4-8.4-1.1-1.7-6-8-.5-.7m-4.6-19.9 8-.9 8 1.4-9.4 3.5-3.6 1.3m-27.8 4.4 8.1-1.3 7.9 1.3 6.9 3.9 6.4 6.4m-51.1-1.8 7.9-1.6 7.7 1.3 7.2 3.9 6.7 6.8m-53.3-.9 8.2-1.8 7.7 1.3 7.1 4 6.3 7m-49.2-1.4 7.5-1.2 7.6 1.4 7.3 3.9 6.5 6.2 4.7 8.5 1 9.9.1 1.1-9.5-1.2-8.8-4.3 5.3-8.6M7.2 213.24l-1.1 4.3.3 3.4 3.5 2.6 6.7 4.1 8.9 4.6.6.3 9 4.3 3.9 1.9 9 4.3 7.7 3.7 9 4.3 9 4.3 1.3.6 9 4.3 9 4.3 2.4 1.1 9 4.3 9 4.3 2.9 1.4 9 4.3 9 4.3 3.1 1.5 9 4.3 9 4.3 3.3 1.6 9 4.3 9 4.3 3.5 1.7 9 4.3 9 4.3 3.6 1.7 9 4.3 9 4.3 3.8 1.8 9 4.3 9 4.3 4 1.9 9 4.3 9 4.3 4.2 2 9 4.3 9 4.3 4.4 2.1 9 4.3 9 4.3 4.6 2.2 9 4.3 9 4.3 4.6 2.2 9 4.3 9 4.3 4.4 2.1 9 4.3.1.1M14.8 233.04l.3-2.2 1.6-3.2 3.4-4.7 4.9-5.2m0 0-9.6-2.8-.7-.2-7.5-1.5m-2.6-2.1-1.8 4 .3 4.2 2 4.3 3.7 4.6 6 4.9 8.6 5.1.3.2 8.9 4.6 3.7 1.9 8.9 4.5 7.7 3.9 8.9 4.5 8.9 4.5 1.4.7 8.9 4.5 8.9 4.5 2.5 1.3 8.9 4.5 8.9 4.5 3 1.6 8.9 4.5 8.9 4.5 3.3 1.7 8.9 4.5 8.9 4.5 3.5 1.8 8.9 4.5 8.9 4.5 3.7 1.9 8.9 4.6 8.9 4.6 3.8 2 8.9 4.6 8.9 4.6 4 2 8.9 4.6 8.9 4.6 4.2 2.1 8.9 4.6 8.9 4.6 4.4 2.2 8.9 4.6 8.9 4.6 4.6 2.3 8.9 4.5 8.9 4.5 4.8 2.4 8.9 4.5 8.9 4.5 4.8 2.5 8.9 4.5 8.9 4.5 4.6 2.3 4.8 2.4m-353-188.7-1.2 1.1-.2 1.7.6 1.8m169.4 15.5 9.7-2.6 6.2-1.6 9.7-2.3 5.6-1.3m-77.9-8.1 9.5 3.2 9.5 3.2 4.1 1.4 9.5 3.2 9.5 3.2 4.7 1.6m31.1-7.7-9.5-3-9.5-3-5.2-1.6-9.5-3-9.5-3-4.7-1.5m-.1.1-9.8 2.1-5 1.1-9.7 2.4-5.4 1.3m-25.6-30.5-9.8-1.8-1.9-.4-8.3-.9m2.5 5.5 9.9-1.5h.3l7.4-.9m401.6 107.4-1-.3-9.6-2.7-9.6-2.7-7.6-2.2-9.6-2.7-9.6-2.7-7.6-2.2-9.6-2.7-9.6-2.7-7.4-2.1-9.6-2.7-9.6-2.7-7.2-2.1-9.6-2.7-9.6-2.7-7.1-2-9.6-2.7-9.6-2.7-6.9-2-9.6-2.7-9.6-2.7-6.7-1.9-9.6-2.7-9.6-2.7-6.5-1.9-9.6-2.7-9.6-2.7-6.4-1.8-9.6-2.7-9.6-2.7-6.2-1.8-9.6-2.7-9.6-2.7-6-1.7-9.6-2.7-9.6-2.7-5.5-1.6-9.6-2.7-9.6-2.7-4.5-1.3-9.7-2.5-9.7-2.5-2-.5-9.8-2.2-8-1.8-9.8-1.8-4.4-.8-9.9-1.4-1.2-.2-6.9-.4-5.9-.4h-7.7l-8.2.4-9.9 1.1-1.3.1-4.6.6m-27.5 4.4 9.8-2 6-1.2 9.9-1.6 6-1 9.4 1.2 9.8 2 2.7.6m287.3 199.7 5.5-8.4 1.1-1.7 6.5-7.6 1.3-1.6 7.4-6.7 2.3-2.1 7.9-6.2 3.8-3 8.1-5.9 6-4.3 8.4-5.4.3-.2 8.4-5.4 1.4-.9 6.1-3.5 8.7-4.9 2-1.2 7.1-4 8.8-4.7 2.7-1.5 5-2.7 7.3-3.9m-126 93 4.4-4.5 5.6-2.7-4.5 8.9-1.2 2.4-3 9.1-1 3.1m41.9-41.3-9.4-2.2-8.5.9-7 3.7-4.7 5.2-.7.8-6.5 7.6-.3.4-.2.3-2.1 3.5-2 3.4-.9 1.6-.1.2-3 5.8M2.8 215.24l.7-1.7 3.7-.3 2.9-4.2 4.5-3.8m0 0-5.1.5m419.3 154.9-9.8-2.1-.9-.2-9.5 1.3-7.6 4.6M38 209.04l-9.8-1.9-3.3-.7-9.9-1.2h-.3l6.5-3.2 9.6-2.8 1-.3m19.3 28.4-9.3-3.6-4.9-1.9-9.4-3.3-2.4-.8 6.1-4.7 6.9-4m18.3-6.4-9.8-1.8-4-.7-9.9-1.1-.9-.1-5.4.5m755.7-15-9.8 1.9-9.8 1.9-5.6 1.1-9.8 2-9.8 2-.8.2-9.8 2-5.7 1.2-9.8 2-1.9.4-9.5 2.1-8.8 2.1-8.6 2.1-2.1.6-2.1.6-8.9 3m-535.3-7.7-9.7-2.4-7.4-1.9-9.8-2.1-4.3-.9 6.5-.6h5m420.5 80.9-.4.4-6.7 7.5-4.1 4.6-2.6 2.4-2.6 2.4m3.9.6-8.8 4.8-6.2 3.4-2 1.1-8.8 4.8-7.7 4.1m50.2-14.8-9.3-2.6-7.4-.8m-159.5 111-3.7 9.3-.3.6-.1.5-1.8 9.8-.1.4m.1.1 2.6-3 3.4-1.3M56.4 202.64l9.8-2.1 4.8-1 9.8-1.8 4.5-.8 9.7 2.4 4.2 1.1 9.6 2.7 6.8 1.9m-78.5 41.8-.9-1.9.4-2.5 2.4-3.8 5.1-5.4 6.9-5.9m16.1-9.4-9.5-3.2-6-2-9.6-2.6-4.1-1.1 7.8-3.3 9.6-2.8 1-.3 9.7 2.4 4.7 1.2 9.6 2.9 6.6 2m1.8 32-9.2-3.9-9.2-3.9-1.5-.7-9.2-3.8-8.5-3.5 7.8-5.1 8.2-4.3m303.9 90 9.5 3.2 9.5 3.2 6.4 2.2 9.5 3.2 9.5 3.2 6.4 2.2m-14.3-29.1-9.5 3-8 2.5-9.5 3.2-9.5 3.2m50.6 17.3 9.4-3.3 9.4-3.3.9-.3 9.5-3.2 8.5-2.8m0-.1-9.5-3-9.5-3-6.9-2.1-9.5-3-9.5-3-6.8-2.1m-301-63.3-9.3-3.6-9.3-3.6-2.2-.8-9.4-3.4-9.2-3.4 8.7-3.5 9.6-2.8 1.5-.4m70 97.9-1.4-3.3.4-4.3 3-5.8 6.5-7.6.1-.1 7.5-6.6 1.6-1.4m-43.6-18.8-7.6 6.5-.9.7-6.1 6.9-2.9 5.1-.4 3.7 1.2 2.8m820.8-133.1 2.8.1m14.9-26.6-.5 1-2.2 4.6-2.2 4.4-.6 1-1.7 3.2-2.1 3.8-1.2 2.3-2.9 3.6-1.8 1.5M178 214.34l7.6-1.3 5.9-.3m-57.5-10.8 9.6 2.7 9.6 2.7 1.5.4 9.6 2.8 9.6 2.8 4 1.2m-31.6-14-5.4.3-7 1.1-7.9 1.3-9.8 1.8-.7.1m-8.9 27.6 9.3-3.8.6-.2 9.6-2.9 2.5-.8-9.5-3.2-9.5-3.2-3-1-9.5-3.1-9.5-3.1-.5-.2 9.8-2.2 4.7-1.1 9.8-1.9 4.4-.9 9.6 2.9 9.6 2.9.9.3 9.6 3 9.6 3 3.5 1.1 9.8-2 1.3-.3 8.6-1.6 9.6 2.8 9.6 2.8 5.1 1.5 9.6 2.8 9.6 2.8 5.6 1.6m-154.3 36.8-1.1-2.3.4-3.1 2.7-4.4 5.7-6.1 7.6-6.4.1-.1m232.4 47.7 9.5-3 8.7-2.8 9.6-2.8 7.4-2.2m-84.5-6.1 9.5 3.2 9.5 3.2 5.6 1.9 9.5 3.2 9.5 3.2 5.8 2m35.1-10.7-9.5-3-9.5-3-6.3-2-9.5-3-9.5-3-6.1-1.9m-.2.1-9.6 2.7-6.8 1.9-9.6 2.9-7.9 2.4m-140.5-12.8-9.2-3.9-9.2-3.9-3.1-1.3-9.2-3.9-9.2-3.9-2.6-1.1 8.4-5.5.3-.2 8.9-4.5.3-.2 9.3 3.6 9.3 3.6 3.2 1.2 9.3 3.6 9.3 3.6 3.7 1.4m.3-.1 9.3-3.8 1.8-.7 9.5-3.1 3.6-1.2 9.5 3.2 9.5 3.2 4.9 1.7 9.5 3.2 9.5 3.2 5.1 1.7m-207.7-22.5-.7-1.7m819.6-115.3.6-.4m76.7 41.5-4.9-2.9-8.8-4.8-5.9-3.2-8.8-4.7-3.7-2-8.8-4.7-1.9-1-8.8-4.7-1.1-.6-8.8-4.7-.3-.1-8.1-4.3-6.7-3.7-5.1-3-2.9-2.1m-3.3-16.7-.5 5.1 1.1 5.3 1.5 4.1 1.2 2.3-1.2-.6m-2.8-4.9 1.2-1 3.4.7 5.6 2.2m5.6-20.2-6.8 1.1-5.3 2.2-3.1 3.7-1.3 2m102.5 19.4 9.3 3.8 9.3 3.8 2.3.9 6.8 2.9m-8.6-13.9-9.3.9-9.7 1.6m-81.1-26.2-7.4-1.4-4.4.3m2.3 7.5 3.8-4 5.8-2.4m-20.2 4.8h3.9l6.7 1.7m125.4 15.2-8.7-2.3-9.7-2.5-5.8-1.5-9.7-2.4-4.2-1-9.7-2.4-3.4-.8-9.7-2.4-3-.7-9.7-2.3-1.2-.3-5.7-1.3m-14.4-2.8 7.9 1.5m.1 0 3.5.7.4.1 2.6.5m-516.2 359.4-7.2-5.2m1.7 6.4 5.5-1.2m-7.2-5.2-2-4.3m2.9 10.5.8.2m508.7-356-9.6-2.9-2.5-.8-9.7-2.6-.7-.2 7.2-1.1 7.6-.1m0 .2-7.9-1.4h-5.8m98.1 52-9-4.3-7.4-3.5-9.1-4.1-9.1-4.1-.7-.3m19 27.7 7.3-6 8.6-5.2.4-.2m-35.3-16.3-6.5 5.9-4.8 6.7m-13.9-6.6 9 4.3 4.8 2.3 9 4.5 7.2 3.6 8.9 4.5 5.2 2.6m-30.3-15.2-3.1 6.4-1.3 4.9.7 2.5m43-44.2-5.2-1-6.1-.7m0-.1 9.6 2.6 6 1.7 9.6 2.8 9.2 2.7m-714.5 240.4-1.6-4.3.3-5.6 3.3-7.4 6.2-7.9 1.2-1.5 7.3-6.8 3.1-2.9m-45.1-19.2-7.4 6.7-2.3 2.1-6.3 7.8-.6.8-3.2 6.6-.3 4.9 1.5 3.8m128-73.2 9-1.8 7-.3m-51.7-14.9-6.6.3-8.6 1.6m0 .1 9.6 2.8 9.6 2.8 6.2 1.8 9.6 2.8 9.6 2.8 6.4 1.9m103.8 30.6 9.8-2.2h.2l7.7-.3m-53.1-15.2-7.4.3-9.5 2m0 0 9.6 2.8 9.6 2.8 6.9 2 9.6 2.8 9.6 2.8 7.1 2.1m-176.7-40.3 9.5 3 9.5 3 5.8 1.8 9.5 3 9.5 3 6 1.9 9.7-2.5 3-.8 9.7-2.4.4-.1 9.6 2.8 9.6 2.8 6.5 1.9 9.6 2.8 9.6 2.8 6.7 2-9.7 2.5-.9.2-9.6 2.7-3.6 1 9.5 3 9.5 3 6.5 2 9.5 3 9.5 3 6.7 2.1 9.6-2.9 4.1-1.2 9.6-2.7 1.4-.4 9.6 2.8 9.6 2.8 7.2 2.1 9.6 2.8 9.6 2.8 7.2 2.1m-257.6-75.5 9.6 2.8 9.6 2.8 5.8 1.7 9.6 2.8 9.6 2.8 6 1.8-9.6 2.2-9.7 2.3-2.5.6m-59.1 18.7-8.9 4.6-2.4 1.2-8.3 5.5-2.1 1.4m67.9 5.1-9.3-3.6-9.3-3.6-4.5-1.7-9.3-3.6-9.3-3.6-4.3-1.7m26.4-9.9-9.5 3.2-4.8 1.6-9.2 3.8-3.1 1.3-9.3-3.6-9.3-3.6-4.2-1.6-9.3-3.6-9.3-3.6-4-1.5-8.9 4.5-1.4.7-8.4 5.5-1.2.8 9.2 3.9 9.2 3.9 3.3 1.4 9.2 3.9 9.2 3.9 3.5 1.5 9.2 3.9 9.2 3.9 3.7 1.6 9.2 3.9 9.2 3.9 3.8 1.6m44.9 19.7-9.2-3.9-9.2-3.9-4.2-1.8-9.2-3.9-9.2-3.9-4-1.7 8.3-5.6 3-2 8.9-4.6 3.5-1.8m611.9-181.3-9.5-3.2-1.4-.5-9.3-3-1.4 5.5.3 6.1m16.8 7 1.4-6.3 3-5.7m-19.5 13.6-.6-3.3-1-5.3 7.6 3.2 9.1 3.9m-.2 10.7-.1-1.2-.1-3.9.4-5.7 9.2 3.9.8.3 9.2 4 1.6.7m51.7 32 4.2-5 5.8 2.8m-50.1-58.6 7.6.5 6.9.9m0 0-9.7-2.5-3.3-.8-9.7-2.3-1.5-.3-6.9-1-7.3-.6 9.7 2.4 1.3.3 9.6 2.6 3.2.9m.2 34-9.1-4.1-2.6-1.2m7.3-12.5-4.5 5.9-2.9 6.7-1.5 6.2-.5 4.5.3 1.9m9.1-25.2-9.4-3.4-2.7-1-9.4-3.3-2-.7 5-4.1 6.8-2.5m25.8 8.2-7.8 2.6-6.3 4.2 9.4 3.5 4.1 1.6 9.2 3.8 6.9 2.9 8-4.2 9.1-2.7-9.4-3.5-8.4-3.1-9.5-3.2zm51.7 9.1 8.1-.3h7m-13.3 27.5-2.8-1.3 4.5-1.8m-610.2 182.8-9.3-3.6-9.3-3.6-5.3-2-9.3-3.6-9.3-3.6-5.1-1.9m20.1 34.8 8.2-5.7 4.7-3.2 8.9-4.6 5.6-2.9m-47.6-18.4-8.9 4.6-4.6 2.4-8.3 5.6-3.8 2.6 9.2 3.9 9.2 3.9 4.4 1.9 9.2 3.9 9.2 3.9 4.6 2m-58.8 20.3 8.9 4.6 8.9 4.6 2.5 1.3 8.9 4.6 8.9 4.6 4.9 2.5 8.9 4.6 8.9 4.6 5.1 2.6 8.9 4.6 8.9 4.6 5.1 2.7 8.9 4.6 8.9 4.6 1 .5m-64.8-33.2-4.7-2.5-1.8-4.8.3-6.3 3.5-8.2 6-8 1.8-2.3 7.2-6.9 3.8-3.6 9.2 3.9 9.2 3.9 4.8 2 9.2 3.9 9.2 3.9 4.8 2.1m172.5-68.4-3.2 1.8-3.2 1.8-4.6.1.8-.6m-133.1 47.7 9.2-4 8.1-3.5 9.3-3.6 9.5-3.6 9.5 3.2 9.5 3.2 6.1 2.1.6.2m97.9-67.7-6 8-2 2.7-5.7 8.2-2.8 4-5.1-.4m-281.9-61.8-6.3.3-8.1 1.5-9.1 1.9-9.8 2.2-1.9.4 9.5 3 9.5 3 5.4 1.7 9.5 3 9.5 3 5.6 1.8-9.7 2.5-6.2 1.6-9.6 2.7-7 2 9.5 3.2 9.5 3.2 5.3 1.8 9.5 3.2 9.5 3.2 5.5 1.9-9.4 3.3-6 2.1-9.2 3.9-4.3 1.8 9.3 3.6 9.3 3.6 4.7 1.8 9.3 3.6 9.3 3.6 4.9 1.9 9.2-3.9 5.6-2.4 9.4-3.4 7.2-2.6 9.5 3.2 9.5 3.2 6 2.1 9.5 3.2 9.5 3.2 6.2 2.1-9.4 3.5-8.4 3.1-9.2 3.9-6.9 2.9 9.3 3.6 9.3 3.6 5.4 2.1 9.3 3.6 9.3 3.6 5.5 2.1m-29.3 17.7-7.2 7-4.5 4.4-5.9 8.1-2.3 3.1-3.6 8.9-.2 6.9 1.9 5.3 5 2.8m145.8-99.7-9.6 2.8-2 .6-9.5 3-4.7 1.5 9.5 3 7.7 2.4m18.7-10.4-9.6-2.8-.5-.2 9.7-2.3.6-.1 8.1-.3m-113.2 70.7-9.2-4-2.1-.9-9.2-3.9-9.2-3.9-4.6-2 8.2-5.7 5.6-3.9 8.9-4.6 6.7-3.5 9.3 3.6 9.3 3.6 5.2 2 8.6 3.3m23.3-15 9.8-1.4 9.8 2.1 1.8.4m-99.4 113.4-.9-10-.8-8.9 1.2-9.9.3-2.9 4.1-.6m542.6-316-8.7.4-8.7 1.3-9.5-3-3.8-1.2-9.6-3-3-.9 8-1.2 8.2-.2 9.6 2.7 3.6 1 9.6 2.8zm-1-4.2-5.4-1.2-6.3-1 9.7 2.5 3.6.9 9.7 2.6 4.4 1.2-6.9-.6-7.8-.2 9.6 2.9 6 1.8 9.5 3.1 9.2 3 9.4 3.3 3.4 1.2m-433.1 169.8v-1.3m-160.5 164.5-5.4-8.4-1.9-2.9-2-8.1 1.1-4.5 2-3.4.7 10 .1 1.2 3.2 9.5zm-3.3 5.2 3.4-5.2-.4 8.5m0 0 2.1 4.2m-4.7-5.3-.4-2.2m318.3-250.6-9.5 3.3-4.7 1.6-9.4 3.4-4.3 1.6-9.3 3.6-3.6 1.4-9.3 3.7-2.6 1-9.3 3.7-1.6.6-9.3 3.6-1.6.6-9.3 3.7-2.6 1-9.3 3.7-2.7 1.1-9.2 3.9-1.6.7-8.9 4.5-.1.1-7.3 4.2m7.3-4.4-7.4 5.4m0 0-6.9 7.3-.5.5H543v0h-.8m490.6-70.4-1 2.1m19.7-60.6.1-.4"/>
  <path d="M1024.43 0q-.57.02-1.03.14l-6.8 2.2c-.3.2-.6.4-.8.7l-9.9 11.6-.1.1c0 .1-.1.1-.1.2l-16.6 29.5v.1l-2.9 5.8-13.2 27-12.6 27.4-1.84 4.09-6.76-1.8-15.1-3.89-37.2-9.1-13.9-3.3-5.8-1.3-8-1.6-6.6-1.2h-.1l-6.9-.9h-.2l-6.33-.44a3 3 0 0 0-.97-.16h-.1l-4.1.1h-3.4l-4.5.2h-.3l-6.8 1.1c-.3 0-.5.1-.7.2l-5.3 2.2c-.4.1-.8.4-1.1.8l-3.1 3.7c-.1.1-.1.2-.2.3l-1.3 2c-.3.4-.5.9-.5 1.4l-.4 4.7v.3c0 .2 0 .5.1.7l1.1 4.6c0 .2.1.4.2.6l1.3 2.8c0 .1.1.3.2.4l1.4 2.1c.2.3.4.5.6.7l3.3 2.7c.1.1.2.1.3.2l5.2 3.3c0 .1.1.1.1.1l7.1 4.1 38.3 21.6 12.8 7 8.92 4.79-31.02 6.01-18.3 3.7-8.6 1.7-9.7 2-1.1.2h-.1l-19.6 4-19.6 4-5.1 1.1-30.4 5.9-19.6 4h-.1l-26 5.4-11.5 2.5-13.97 3.43-.27-.06-.04.14-3.22.8h-.1l-4.2 1.19h-.1l-8.9 3-19 6.8-9.3 3.6-26.4 10.4-10.9 4.2-23.9 9.5h-.1l-9.2 3.9-1.6.7c-.1.1-.2.1-.2.1l-8.9 4.5c-.2.1-.3.2-.5.3l-7 4c-.1 0-.1.1-.2.1l-4.1 2.7c-.2.1-.4.3-.5.4l-6.4 6.3c0 .1-.1.1-.1.2l-6.4 7.59q-.2.03-.4.11c-.4.2-.9.4-1.2.8l-4.1 4.5-6.6 7.4-4.9 4.6-12.17 8.44-.13-.04-7.6-2.2-19.2-5.4-7.6-2.2-45.8-12.9-7.2-2.1-45.5-12.8-6.9-2-45.1-12.7-6.5-1.9-44.8-12.6-6.2-1.8-44.4-12.5-5.5-1.6-43-12.1-21.5-5.5-17.8-4h-.1l-14.2-2.6-11.2-1.6h-.2l-6.9-.4-5.9-.4h-8l-8.3.4-1.3.1h-.1l-10 1.1-4.7.6-16.4 2.6h-.1l-16.1 3.3c-.1.1-.2.1-.3.1l-10.6 3.1c-.1 0-.3.1-.5.2l-6.2 3.2c-.3.1-.5.3-.7.5l-3.9 3.7c-.3.2-.5.4-.6.7l-1 1.8s-.1.1-.1.2l-1.8 4c-.2.5-.3.9-.3 1.4l.2 4.1c0 .1.1.3.1.5s.1.3.1.4l.9 2.2c.1 0 .1.1.1.1l1.8 3.8c.1.2.2.4.4.6l3.6 4.4c.1.1.2.3.4.4l6.1 4.9c.2.1.2.2.3.2l9.1 5.4.1.1 8.8 4.7 11.6 6.1 177.8 92.1 4.3 2.3 40.1 20.8c.23.15.52.25.78.28l44.92 23.02 5.1 2.6 5.1 2.7 33.21 17.03-1.21 3.17c0 .1-.1.2-.1.3l-1.6 5.8c-.1.2-.1.3-.1.5l-1.4 12.6v.7l.5 5.3c.1.2.1.3.1.4l1.2 5.5c0 .1.1.2.1.3l1.7 5c0 .1.1.1.1.2l1.6 3.7c.1.2.2.4.3.5l1.8 2.7.1.1 2 2.7c.1.2.2.3.3.4l2.7 2.6c.1.1.2.1.3.2l3.7 2.8c.1 0 .1.1.2.1l5.6 3.6s.1.1.2.1l5.6 2.9c.1.1.2.2.3.2l8.2 3c.1.1.1.1.2.1l6.8 2c.1.1.1.1.2.1l9.6 2.1h.1c.2 0 .5.1.7.1l10 .8 9.3.7h30.8l18.5.6 25.3 1.8 26.6 5.4 19.1 5.6 21.8 6.6 2.9.9 42.9 13 35.3 10.3 9.7 2.9 19.2 5.6 28.9 8.5c.1.1.2.1.3.1l29 8.4h.1l308.5 90.1 19.2 5.8 7.8 2.3 19.2 5.8 9.9 2.7 9.7 2.5h.2l9.8 1.8 4 .7h.2l6.4.6 10 .8h.2l10.5.1h.9c.1 0 .1 0 .5-.3l19.2-1.1h.1l9.9-1.3 1.8-.3c.2 0 .5 0 .7-.1l9.6-2.9c.3 0 .6-.2.8-.3l8.5-5.4c.2-.1.3-.2.4-.3l2.2-1.9.1-.1 8-8.3.3-.3 5.8-8.2.2-.3c.1-.1.1-.3.2-.4l2.6-5.8q.3-.6.3-1.2l.1-4.3v-.1c0-.2-.1-.4-.1-.6l-.6-2.7-.7-3.9c0-.3-.1-.5-.2-.7l-1.8-4.2c-.1-.2-.2-.3-.3-.5l-1-1.5c0-.1-.1-.1-.1-.2l-2.5-3.2c-.1-.2-.2-.3-.3-.4l-6.3-5.8c-.1 0-.2-.1-.3-.2l-10.3-7.3c-.1 0-.1-.1-.2-.1l-15.3-8.9-.1-.1-17.8-9.2-27.1-13.3-65.3-31.2a3 3 0 0 0-1.33-.25L797.8 402.54l-8.2-4.2-9.14-4.62q-.45-.36-1.06-.68c-2.9-1.4-9.1-5.8-9.1-5.8s-1.47-1.35-3.5-3.42l6.1-6.98q.25-.3.4-.64l10.7-10.26 7.3-6.9 2.2-2.1 26.3-17.4 25.9-15.9 97.1-57.6.1-.1 8.8-5.2 14.7-8.8 10-6.2c0-.1.1-.1.1-.1l5.9-4c0-.1.1-.1.1-.1l5.8-4.2 6.6-5.1 7-5.6 18.6-15 5.2-4.3 4.3-3.7 3.5-3.1c0-.1.1-.1.1-.1l1.05-1 24.15 4.5h.1l18 3.1 32.3 5.2 4.6.8 2.2.4 9.8 1.6.3.1c.1.1.2.1.3.1l9.9 1.4h.1l9.2 1.2h.2l3.6.2 10 .4h.1l13.7-.5h.2l5.4-.4h.6l9.9-1.6h.2c.1 0 .2-.1.3-.1l6.5-2.5.9-.6 5.2-4.6c.3-.3.6-.7.8-1.2l1-2.8c.1-.3.2-.7.2-1s0-.6-.1-.9l-.8-2.7c-.1-.4-.3-.8-.6-1.1l-1.7-2-.2-.2-2.2-2.2c-.2-.2-.3-.3-.5-.4l-3.2-2.1-.1-.1-3.1-1.8c-.1 0-.1-.1-.2-.1l-4.5-2.2c0-.1-.1-.1-.1-.1l-7.6-3.3h-.1l-9.3-3.7h-.1l-1.3-.5-21.5-8.6-31.1-12-9.4-3.5-26.7-9.7-16.5-6.2-6.9-2.9-2.97-1.57.47-9.33.1-4.7v-6.6l-.1-7.8-.2-8v-.6l-.5-10-1.5-21.7v-.2l-2.3-22.7v-.1l-.6-4v-.1l-3-15.7v-.1c-.1 0-.1-.1-.1-.2l-3.1-9.4c-.1-.1-.1-.3-.2-.4l-2.9-5.6c-.1-.3-.3-.5-.5-.7l-3.2-3.4c-.2-.2-.5-.4-.8-.6l-4.2-2.2c-.3-.1-.6-.3-.9-.3l-5.3-.8zm.07 5.64 4.1.6 3.3 1.7 2.6 2.7 2.6 5 3 9 3 15.5.6 3.9 2.2 22.1 1.5 22.2v.5l.5 9.9.2 8.1.1 7.8v6.5l-.1 4.5-.49 9.29a3 3 0 0 0-.11 2.83 2.95 2.95 0 0 0 3.33 2.96l2.97 1.62c.1 0 .2.1.3.1l7.1 3h.1l7.2 2.7 45.4 16.7 23.8 9.2 28.7 11.4 9.3 3.7h.1l1.3.5 7.4 3.2 4.3 2.1 2.9 1.7 2.9 1.9 1.9 1.9 1.2 1.4.3 1.2-.4 1.2-4.2 3.7-5.6 2.1-9.8 1.6-5.3.4-13.3.5-3.5-.2-9.9-.4-8.9-1.2-.2-.1c-.1-.1-.2-.1-.3-.1l-9.8-1.4-2.1-.4-9.9-1.6-4.6-.8-32.2-5.2c-4.8-.8-9.7-1.5-14.5-2.4l-10.7-2.1c-5.5-1.1-10.9-2.1-16.4-3.2l-18.8-3.6c-6-1.1-11.9-2.3-17.8-3.4-4.5-.9-8.9-1.7-13.4-2.6l-6.2-1.2a56 56 0 0 0-8.1-1c-1.2 0-10.2-1.1-11.1-.5.2.4 3.5 3.1 7 4.4 3.6 1.3 7.3 2.2 8.1 2.4.9.2 1.7.4 2.5.6 1.2.2 2.4.5 3.6.8s2.3.5 3.5.8c.7.2 1.4.3 2.1.5l1.5.3 3.2.6c1.3.2 2.5.5 3.8.7l3.2.6c.4 0 .9.1 1.3.2l.5.1h.2l11.6 2.1 1.2.3h.1l12.8 2.5h.03l-1.13 1-4.3 3.7-5.2 4.3-25.5 20.6-6.5 5.1-5.7 4.2-5.8 3.9-7.7 4.8-8.7 5.2-2.1 1.3-31.8 18.9-.1.1-80.1 47.5-25.9 15.9h-.1c0 .1-.1.1-.1.1l-26.6 17.6-.3.3-.1.1-7.3 6.9-13.7 13.1-1.2 1.2q-.49.49-.71 1.1l-3.86 4.48a80 80 0 0 1-2.63-3.18c-2.6-8-4.7-13.9-4.1-19.7-3.5 4.7-2 16.3-.1 21.5.9 2.6 6.3 10.2 10.7 13.3 3.5 2.46 7.8 5.43 9.44 6.54q.37.41.86.66l9.4 4.8 11.8 5.9 282.6 133.4-.04-.51 53.94 25.81 24.1 11.8 17.8 9.2 2.9 1.5 15.1 8.8 10 7.1 6 5.5 2.3 2.9.8 1.2 1.6 3.6.6 3.7v.1l.5 2.5-.1 3.3-2.2 5-5.6 7.9c-.1 0-.1.1-.1.1l-7.8 8.1-1.9 1.7-7.9 5-9.2 2.8-9.7 1.3-1.9.3-9.1.5-9.9.6-9.9-.1h-.8l-9.9-.8h-.2l-6.5-.6-9.7-1.8-3.9-.7-7.3-2-9.6-2.5-40.8-12.3-344.4-100.6h-.1l-29.5-8.6c0-.1-.1-.1-.2-.1l-10-2.9-38.4-11.2-78.1-23.6-2.9-.9-21.9-6.4c-.1-.1-.2-.1-.3-.1l-26.9-5.5c-.1-.1-.3-.1-.4-.1l-25.6-1.8h-.1l-18.6-.6h-30.7l-8-.6-11-.9-9.5-2h-.2l-6.7-2-7.9-2.9-5.3-2.7-5.4-3.5-3.5-2.6-2.4-2.3-1.8-2.4-1.6-2.4-1.4-3.3-1.6-4.7-1.1-5.2-.4-4.8 1.3-12 1.5-5.4 1.7-4.4v-.1s.1-.1.1-.2l1.5-3.8c.1-.1.1-.1.1-.2l2.8-5.5 5-8.4 6.7-7.9 5.2-5.8 1.8-1.5 7.4-6.5 11.3-8.7 13.9-9.8 3-1.9 4.7-3.1 18.4-11.8 6.1-3.5 1.9-1.2 15.8-8.9 23.1-15.3c0-.1.1-.1.1-.1l6.3-3.7 7.7-4.3.5-.3.1-.1 6.9-4.7 8.2-5.7.3-.3 1.42-1.31q.21.28.48.5a2.8 2.8 0 0 0 3.07.44l-.03.25 10.67 1.27 8.46 2.38 9.7 4.36 10.62 5.66.08.04 11.1 5.5a3 3 0 0 0 .58.21l12 3.1a3 3 0 0 0 1.03.09l13.6-1.3a3 3 0 0 0 .59-.12l15.5-4.7.18-.06 17.4-6.5.12-.05 17-7.2.15-.07 14.7-7.2.21-.11 12.8-7.6.3-.2 11.5-8.9a3 3 0 0 0 .4-.37l9.6-10.6a3 3 0 0 0 .43-.62l6.5-12.4a3 3 0 0 0 .25-.66l3-12a3 3 0 0 0 .09-.86l-.4-9.4a3 3 0 0 0-.27-1.12l-3.3-7.2a3 3 0 0 0-.5-.75l-5-5.6a3 3 0 0 0-.78-.63l-5.68-3.13 3.03-.74 9.5-2.1 46.8-9.6h.1l31.1-6.1 19.6-4 5-1.1 1.1-.1c.2-.1.3-.1.4-.1l19.6-4 8.6-1.7 28.1-5.7 8.1-1.6 33.4-6.4h.2l7-1.4 4.1-.9 5.5-1c.2 0 .4 0 .6-.1l6.7-1.7c.2-.1.3-.1.5-.2l1.54-.7a2.3 2.3 0 0 0 1.62-.75l.54-.25c.63-.27 1.1-.78 1.4-1.38.1-.08.23-.17.3-.32l2.9-3.6c.1-.2.2-.3.3-.5l1.2-2.2 2.1-3.8 1.7-3.1.6-.9c0-.1.1-.1.1-.2l2.2-4.4 2.2-4.6.5-1a3 3 0 0 0 .05-2.5l19.55-41.3 2.3-5 2.9-5.8 13.2-26.9 16.4-29.2 9.2-10.7zM844.57 91.22l.33.02h5.5l7.1.5 6.7.9 6.5 1.2 7.8 1.6 5.7 1.3 10.9 2.6 35.5 8.7 4.1 1 15.5 4 5.78 1.53-.38.87-5.09 10.08q-.18.24-.31.52l-2.7 5.6-2.1 4.3-.5.9-.1.1-1.7 3.2-2.1 3.9-1.1 2-2.5 3.1-.75.61-.25.09s-.1.1-.2.1l-2.2 1-6.1 1.5h-.4l-16.7 3.3h-.2l-1.4.27-15.6-8.37-12.7-6.9-38.3-21.6-7-4.1-5-3.2-2.8-2.3-1-1.5-1.1-2.3-.9-3.8.3-3.5.8-1.2 2.5-3 4.3-1.8 6.3-1 4.3-.2zM83.4 195.24h7.5l5.8.4 6.7.4 11 1.6 14.1 2.6 17.7 4 21.3 5.5 23.7 6.7 5.5 1.6 44.4 12.5 6.2 1.8 44.8 12.6 6.5 1.9 45.1 12.7 6.9 2 45.5 12.8 7.2 2.1 45.8 12.9 7.8 2.3 19.2 5.4 7.6 2.2a355 355 0 0 1 12.62 3.56l-.42.24-8.6 5-23.8 12.8-7.2 4-1.9 1.2-8.7 4.9-6.1 3.5-.1.1-18.5 11.9-4.7 3.1-3 1.9-.1.1-14 9.9-.1.1-10.6 8.2-.8.6-.1.1-1.9 1.6-7.5 6.6-.2.2-4.7 5.2-.7.8c0 .1-.1.1-.1.2l-6.7 7.9c-.1.1-.1.2-.2.3l-.2.3c-.1 0-.1.1-.1.1l-4.1 7-.9 1.6c-.1 0-.1.1-.1.1l-3.1 6c-.1.2-.1.5-.2.7l-.07.18-13.93-7.08-6.1-3.2-67.02-34.27a3 3 0 0 0-1.08-1.03l-22.3-11.6-4.3-2.3L57 253.84l-9.4-4.9-8.9-4.6-8.8-4.7-3.7-2-8.9-5.3-5.7-4.6-3.2-3.9-1.6-3.4-.6-1.5.1-1.9 1.5-3.4.7-1.3 3.3-3.1 5.6-2.9 10.2-3 15.9-3.3 6.5-1 9.8-1.6 4.5-.6 1.2-.1h.1l9.8-1.1zm601.78 12.7 8.64 1.93 5.88 3.25 4.36 4.88 2.87 6.26.35 8.37-2.8 11.24-6.16 11.74-9.17 10.12-11.14 8.62-12.54 7.45-14.52 7.11-16.86 7.14-17.25 6.45-15.12 4.58-12.78 1.22-11.19-2.89-10.78-5.34-10.66-5.68-.18-.09-10-4.5-.42-.15-8.9-2.5-.45-.09-7.03-.84 5.34-6.58q.5-.18.93-.4l.4-.4.2-.2 7.5-8.8.8-1 6.1-6 3.8-2.5 7.2-4.1 8.8-4.5c.1-.1.2-.1.3-.2l8.8-3.7 1.6-.7 23.8-9.5 10.9-4.2 22.8-9 12.8-5 18.8-6.8 8.8-3 4.1-1.2z"/>
</svg>
