<svg fill-rule="evenodd" preserveAspectRatio="xMidYMid" stroke-linejoin="round" stroke-width="28.222" viewBox="232 171 37533 5678" xml:space="preserve" xmlns="http://www.w3.org/2000/svg"><path d="m232 1535h2536v1236h-2536z" fill="none"/><path d="m1500 2752h-1250v-1199h2499v1199z" fill="none" stroke="#000" stroke-width="35"/><text><tspan font-family="monospace" font-size="353" font-weight="400"><tspan x="971" y="2031"><tspan>magic</tspan></tspan></tspan><tspan font-family="monospace" font-size="353" font-weight="400"><tspan x="653" y="2454"><tspan>(</tspan><tspan fill="#558ed5">uint32</tspan><tspan>)</tspan></tspan></tspan></text><path d="m2732 1535h2536v1236h-2536z" fill="none"/><path d="m4000 2752h-1250v-1199h2499v1199z" fill="none" stroke="#000" stroke-width="35"/><text><tspan font-family="monospace" font-size="353" font-weight="400"><tspan x="3259" y="2031"><tspan>version</tspan></tspan></tspan><tspan font-family="monospace" font-size="353" font-weight="400"><tspan x="3153" y="2454"><tspan>(</tspan><tspan fill="#558ed5">uint32</tspan><tspan>)</tspan></tspan></tspan></text><path d="m250 802h7502v249h-7502z" fill="none"/><path d="m479 927 9661.772-2" fill="none" stroke="#000" stroke-width="35"/><path d="m250 927 218-123 27 27-149 78h149v35h-149l149 80-27 25zm10017.5-2.5-218 123-27-27 149-78h-149v-35h149l-149-80 27-25z"/><path d="m2250 171h3501v759h-3501z" fill="none"/><text x="678.48413"><tspan font-family="'Noto Sans', sans-serif" font-size="423" font-weight="400"><tspan x="3180.4841" y="719"><tspan>16-byte file header</tspan></tspan></tspan></text><path d="m5232 1535h2536v1236h-2536z" fill="none"/><path d="m6500 2752h-1250v-1199h5000v1199z" fill="none" stroke="#000" stroke-width="35"/><text x="1250.0004"><tspan font-family="monospace" font-size="353" font-weight="400"><tspan x="7115" y="2031"><tspan>length</tspan></tspan></tspan><tspan font-family="monospace" font-size="353" font-weight="400"><tspan x="6903" y="2454"><tspan>(</tspan><tspan fill="#558ed5">uint64</tspan><tspan>)</tspan></tspan></tspan></text><g fill="none"><path d="m10232 1535h2536v1236h-2536z"/><path d="m11500 2752h-1250v-1199h2499v1199z" stroke="#000" stroke-width="35"/><path d="m12732 1535h2536v1236h-2536z"/><path d="m14000 2752h-1250v-1199h2499v1199z" stroke="#000" stroke-width="35"/></g><g text-anchor="middle"><text x="12329.569" y="1.347656"><tspan font-family="monospace" font-size="353" font-weight="400"><tspan x="13984.647" y="2455.3477">(      )</tspan></tspan></text><text y="23.07959"><tspan fill="#558ed5" font-family="monospace" font-size="353" font-weight="400" x="13987.313" y="2464.9944">uint32</tspan></text><text x="-97.028259" y="5.501709"><tspan font-family="monospace" font-size="293.333" font-weight="400" x="13996.285" y="2024.4165">chunkEncoding</tspan></text><text x="9847.9385" y="1.347861"><tspan font-family="monospace" font-size="353" font-weight="400"><tspan x="11503.017" y="2455.3477">(      )</tspan></tspan></text><text x="39.196045" y="4.815596"><tspan fill="#558ed5" font-family="monospace" font-size="353" font-weight="400" x="11505.947" y="2464.9944">uint32</tspan></text><text x="-73.314697"><tspan font-family="monospace" font-size="353" font-weight="400" x="11499.435" y="2037.1787">chunkType</tspan></text><text x="22343.508" y="-1.750122"><tspan font-family="monospace" font-size="353" font-weight="400"><tspan x="23998.586" y="2452.25">(         )</tspan></tspan></text><text x="-421.33423" y="8.273438"><tspan fill="#558ed5" font-family="monospace" font-size="353" font-weight="400" x="24001.252" y="2460.5234">0-7 bytes</tspan></text><text x="-113.32679" y="8.245308"><tspan font-family="monospace" font-size="353" font-weight="400" x="23991.262" y="2037.4951">padding</tspan></text></g><path d="m10250 802h7502v249h-7502z" fill="none"/><path d="m10454.553 927 12206.675-2" fill="none" stroke="#000" stroke-width="35"/><path d="m10250 927 218-123 27 27-149 78h149v35h-149l149 80-27 25zm12508.977-2.5-218 123-27-27 149-78h-149v-35h149l-149-80 27-25z"/><path d="m12250 171h3501v759h-3501z" fill="none"/><text x="12298.502" y="1.5"><tspan font-family="'Noto Sans', sans-serif" font-size="423" font-weight="400"><tspan x="14800.502" y="720.5"><tspan>Chunk 0 (JSON)</tspan></tspan></tspan></text><g fill="none"><path d="m15232 1535h2536v1236h-2536z"/><path d="m16500 2752h-1250v-1199h5000v1199z" stroke="#000" stroke-width="35"/><path d="m18362.686 1536.5h2536v1236h-2536z"/><path d="m20232 1535h2536v1236h-2536z"/><g stroke="#000" stroke-width="35"><path d="m21500 2752h-1250v-1199h2499v1199z"/><path d="m23999 2752h-1250v-1199h2499v1199z"/></g></g><text x="7499.999" y=".000007"><tspan font-family="monospace" font-size="353" font-weight="400"><tspan x="20548" y="2031"><tspan>chunkData</tspan></tspan></tspan><tspan font-family="monospace" font-size="353" font-weight="400"><tspan x="20547" y="2454"><tspan>(</tspan><tspan fill="#558ed5">ubyte[]</tspan><tspan>)</tspan></tspan></tspan></text><text text-anchor="middle" x="5836.7529" y="6.178711"><tspan font-family="monospace" font-size="353" font-weight="400"><tspan x="17753.016" y="2037.1786"><tspan>chunkLength</tspan></tspan></tspan><tspan font-family="monospace" font-size="353" font-weight="400"><tspan x="17752.016" y="2460.1787">(      )</tspan></tspan></text><text text-anchor="middle" x="20834.752" y="6.178711"><tspan font-family="monospace" font-size="353" font-weight="400"><tspan x="32751.016" y="2037.1787"><tspan>chunkLength</tspan></tspan></tspan><tspan font-family="monospace" font-size="353" font-weight="400"><tspan x="32750.016" y="2460.1787">(      )</tspan></tspan></text><text text-anchor="middle"><tspan fill="#558ed5" font-family="monospace" font-size="353" font-weight="400" x="17752.016" y="2460.1787">uint64</tspan></text><g fill="none"><path d="m25230 1535h2536v1236h-2536z"/><path d="m26498 2752h-1250v-1199h2499v1199z" stroke="#000" stroke-width="35"/><path d="m27730 1535h2536v1236h-2536z"/><path d="m28998 2752h-1250v-1199h2499v1199z" stroke="#000" stroke-width="35"/></g><g text-anchor="middle"><text><tspan fill="#558ed5" font-family="monospace" font-size="353" font-weight="400" x="32732.748" y="2460.1787">uint64</tspan></text><text x="27330.236" y="6.178711"><tspan font-family="monospace" font-size="353" font-weight="400"><tspan x="28985.312" y="2460.1787">(      )</tspan></tspan></text><text y="18.608643"><tspan fill="#558ed5" font-family="monospace" font-size="353" font-weight="400" x="28985.312" y="2460.5234">uint32</tspan></text><text x="-96.535423" y="3.663574"><tspan font-family="monospace" font-size="293.333" font-weight="400" x="28994.777" y="2022.5784">chunkEncoding</tspan></text><text x="24809.67" y="6.178589"><tspan font-family="monospace" font-size="353" font-weight="400"><tspan x="26464.748" y="2460.1787">(      )</tspan></tspan></text><text><tspan fill="#558ed5" font-family="monospace" font-size="353" font-weight="400" x="26464.748" y="2460.1787">uint32</tspan></text><text x="-72.65332" y="-1.838135"><tspan font-family="monospace" font-size="353" font-weight="400" x="26498.094" y="2035.3406">chunkType</tspan></text></g><path d="m25248 802h7502v249h-7502z" fill="none"/><path d="m25452.553 927 12206.675-2" fill="none" stroke="#000" stroke-width="35"/><path d="m25248 927 218-123 27 27-149 78h149v35h-149l149 80-27 25zm12508.977-2.5-218 123-27-27 149-78h-149v-35h149l-149-80 27-25z"/><path d="m27248 171h3501v759h-3501z" fill="none"/><text x="26457.729" y="1.5"><tspan font-family="'Noto Sans', sans-serif" font-size="423" font-weight="400"><tspan x="29200" y="720.5"><tspan>Chunk 1 (Binary Buffer)</tspan></tspan></tspan></text><g fill="none"><path d="m30230 1535h2536v1236h-2536z"/><path d="m31498 2752h-1250v-1199h5000v1199z" stroke="#000" stroke-width="35"/><path d="m33360.686 1536.5h2536v1236h-2536z"/><path d="m35230 1535h2536v1236h-2536z"/><path d="m36498 2752h-1250v-1199h2499v1199z" stroke="#000" stroke-width="35"/></g><text x="22497.998"><tspan font-family="monospace" font-size="353" font-weight="400"><tspan x="35545.996" y="2031"><tspan>chunkData</tspan></tspan></tspan><tspan font-family="monospace" font-size="353" font-weight="400"><tspan x="35544.996" y="2454"><tspan>(</tspan><tspan fill="#558ed5">ubyte[]</tspan><tspan>)</tspan></tspan></tspan></text><path d="m19941.849-1891.1454h3535v759h-3535z" fill="none"/><path d="m19675.5 4099.5001h3763v1748h-3763z" fill="none"/><path d="m19693.5 4973.5001c0-150 86-298 250-428 163-130 398-238 682-313 283-75 604-115 931-115s648 40 931 115c284 75 519 183 682 313 164 130 250 278 250 428s-86 298-250 428c-163 130-398 238-681 313-284 75-605 114-932 114s-648-39-931-114c-284-75-519-183-682-313-164-130-250-278-250-428z" fill="none" stroke="#000" stroke-dasharray="50" stroke-linecap="round" stroke-width="35"/><text x="7535.499" y="-1.499993"><tspan font-family="'Noto Sans', sans-serif" font-size="423" font-weight="400"><tspan x="20739.5" y="4889.5"><tspan>External </tspan></tspan><tspan x="21111.5" y="5396.5"><tspan>data</tspan></tspan></tspan></text><path d="m21426.5 2733.5h247v1311.0001h-247z" fill="none"/><path d="m21547.5 2751.5 2 1063.0001" fill="none" stroke="#000" stroke-dasharray="100" stroke-width="35"/><path d="m21549.5 4043.5001-123-218 27-27 78 149v-149h35v149l79-149 26 26z"/><path d="m23435.5 3384.5001h2829v672h-2829z" fill="none"/><text x="11738.785" y="11.499971"><tspan font-family="monospace" font-size="353" font-weight="400"><tspan x="27969.785" y="3862.5"><tspan>buffers[0]</tspan></tspan></tspan></text><path d="m21547.5 2751.5h14980.281v729.0001h-14980.281z" fill="none"/><path d="m21560.5 2764.5c964 887.0001 13456.281 949.0001 14828.281 99" fill="none" stroke="#000" stroke-width="25"/><path d="m36526.78100000001 2764.5-110 207.0001-122-171.0001z"/><text transform="translate(232 171)"/><text transform="translate(232 171)"/></svg>
